<svg width="24" height="24" viewBox="0 0 24 24" fill="none" xmlns="http://www.w3.org/2000/svg">
<path opacity="0.4" d="M20.5 10.19H17.61C15.24 10.19 13.31 8.26 13.31 5.89V3C13.31 2.45 12.86 2 12.31 2H8.07C4.99 2 2.5 4 2.5 7.57V16.43C2.5 20 4.99 22 8.07 22H15.93C19.01 22 21.5 20 21.5 16.43V11.19C21.5 10.64 21.05 10.19 20.5 10.19Z" fill="#3E7DE5"/>
<path d="M15.8002 2.20999C15.3902 1.79999 14.6802 2.07999 14.6802 2.64999V6.13999C14.6802 7.59999 15.9202 8.80999 17.4302 8.80999C18.3802 8.81999 19.7002 8.81999 20.8302 8.81999C21.4002 8.81999 21.7002 8.14999 21.3002 7.74999C19.8602 6.29999 17.2802 3.68999 15.8002 2.20999Z" fill="#3E7DE5"/>
</svg>
