<svg width="24" height="24" viewBox="0 0 24 24" fill="none" xmlns="http://www.w3.org/2000/svg">
<path opacity="0.4" d="M19.86 8.09009C19.86 8.24009 19.86 8.39009 19.85 8.53009C18.32 7.96009 16.52 8.31009 15.32 9.39009C14.51 8.66009 13.46 8.25009 12.34 8.25009C9.88 8.25009 7.88 10.2601 7.88 12.7401C7.88 15.5701 9.3 17.6401 10.66 18.9801C10.55 18.9701 10.46 18.9501 10.38 18.9201C7.79 18.0301 2 14.3501 2 8.09009C2 5.33009 4.21999 3.1001 6.95999 3.1001C8.58999 3.1001 10.03 3.88009 10.93 5.09009C11.84 3.88009 13.28 3.1001 14.9 3.1001C17.64 3.1001 19.86 5.33009 19.86 8.09009Z" fill="#3E7DE5"/>
<path d="M18 8.91992C16.93 8.91992 15.96 9.43993 15.36 10.2399C14.76 9.43993 13.8 8.91992 12.72 8.91992C10.9 8.91992 9.42004 10.3999 9.42004 12.2399C9.42004 12.9499 9.53004 13.5999 9.73004 14.1999C10.67 17.1699 13.56 18.9399 14.99 19.4299C15.19 19.4999 15.52 19.4999 15.73 19.4299C17.16 18.9399 20.05 17.1699 20.99 14.1999C21.19 13.5899 21.3 12.9399 21.3 12.2399C21.3 10.3999 19.82 8.91992 18 8.91992Z" fill="#3E7DE5"/>
</svg>
