<svg width="9" height="9" viewBox="0 0 9 9" fill="none" xmlns="http://www.w3.org/2000/svg">
<path d="M0.46967 7.46967C0.176777 7.76256 0.176777 8.23744 0.46967 8.53033C0.762563 8.82322 1.23744 8.82322 1.53033 8.53033L0.46967 7.46967ZM8.75 1C8.75 0.585786 8.41421 0.25 8 0.25H1.25C0.835787 0.25 0.5 0.585786 0.5 1C0.5 1.41421 0.835787 1.75 1.25 1.75H7.25V7.75C7.25 8.16421 7.58579 8.5 8 8.5C8.41421 8.5 8.75 8.16421 8.75 7.75V1ZM1.53033 8.53033L8.53033 1.53033L7.46967 0.46967L0.46967 7.46967L1.53033 8.53033Z" fill="black"/>
</svg>
