<svg width="70" height="70" viewBox="0 0 70 70" fill="none" xmlns="http://www.w3.org/2000/svg">
<path d="M56.5195 63.1645C59.5085 59.1368 61.3198 54.3578 61.7512 49.3608C62.1827 44.3638 61.2174 39.3451 58.9629 34.8647C56.7085 30.3843 53.2537 26.6183 48.9838 23.9868C44.7139 21.3554 39.7969 19.9619 34.7813 19.9619C29.7656 19.9619 24.8486 21.3554 20.5787 23.9868C16.3089 26.6183 12.854 30.3843 10.5996 34.8647C8.34518 39.3451 7.37985 44.3638 7.81129 49.3608C8.24273 54.3578 10.054 59.1368 13.043 63.1645H56.5195Z" fill="#8242EB"/>
<path d="M61.25 62.6172H59.0625V63.7109H61.25V62.6172Z" fill="black"/>
<path d="M9.84375 62.6172H7.10938V63.7109H9.84375V62.6172Z" fill="black"/>
<path d="M41.0156 45.6641V54.4742C41.5625 54.1953 41.5625 53.982 42.1094 53.8344V45.6641H41.0156Z" fill="#7DC4C4"/>
<path d="M32.8672 60.2496C32.8729 59.7183 33.0006 59.1954 33.2405 58.7213C33.4804 58.2472 33.8261 57.8345 34.2508 57.5152C33.5687 57.2835 32.8266 57.3009 32.1562 57.5645L32.0031 57.0613C31.7876 56.3792 31.3416 55.7931 30.7415 55.4036C30.1415 55.014 29.4247 54.8452 28.7138 54.926C28.003 55.0068 27.3423 55.3321 26.845 55.8464C26.3476 56.3606 26.0445 57.0318 25.9875 57.7449L25.9492 58.3301L25.3695 58.2481C25.273 58.2426 25.1762 58.2426 25.0797 58.2481C24.4944 58.2481 23.9332 58.4805 23.5194 58.8944C23.1055 59.3082 22.873 59.8695 22.873 60.4547C22.873 61.0399 23.1055 61.6012 23.5194 62.015C23.9332 62.4289 24.4944 62.6613 25.0797 62.6613H33.3594C33.5008 62.6559 33.6416 62.6394 33.7805 62.6121C33.1862 61.9697 32.8595 61.1247 32.8672 60.2496Z" fill="white"/>
<path d="M28.9844 48.9453V53.8672H29.05C29.3949 53.8568 29.7399 53.8862 30.0781 53.9547V48.9453H28.9844Z" fill="#7DC4C4"/>
<path d="M56.9078 62.6172H48.3273C48.9344 61.9782 49.2731 61.1306 49.2734 60.2492C49.2692 59.5024 49.0258 58.7767 48.579 58.1783C48.1322 57.5799 47.5054 57.1404 46.7906 56.9242C46.743 56.0382 46.3576 55.2042 45.7136 54.5938C45.0697 53.9834 44.2162 53.6431 43.3289 53.643C42.932 53.6439 42.5381 53.7123 42.1641 53.8453C41.764 53.9913 41.3936 54.208 41.0703 54.4852C41.0703 54.4852 41.0156 54.4852 41.0047 54.4852C40.4977 54.2103 39.9389 54.0445 39.3641 53.9984V43.4766H42.0984V41.2891H42.9625L44.5266 48.3984H47.0312V34.7266H42.1094V16.625C42.1094 14.9844 38.8281 6.28906 35.6453 6.28906H35.5469C32.375 6.28906 28.9844 14.9625 28.9844 16.625V34.7266H24.0625V48.3984H26.6656L28.2297 41.2891H28.9844V43.4766H31.7188V54.7641C31.2313 54.3876 30.6735 54.1125 30.0781 53.9547C29.7318 53.8786 29.3768 53.8492 29.0227 53.8672C28.0672 53.857 27.1378 54.1784 26.3929 54.7768C25.648 55.3751 25.1336 56.2133 24.9375 57.1484C24.0835 57.1726 23.2726 57.529 22.6772 58.1418C22.0818 58.7545 21.7489 59.5753 21.7492 60.4297C21.7578 61.1241 21.9942 61.7966 22.4219 62.3438C22.493 62.4367 22.5641 62.5406 22.6461 62.6281H12.0312V63.7219H56.875V62.6281L56.9078 62.6172ZM42.1094 35.8203H45.9375V47.3047H45.3906L43.8266 40.1953H42.1094V35.8203ZM28.9844 40.1953H27.3438L25.7797 47.3047H25.1562V35.8203H28.9844V40.1953ZM30.0781 16.6797H34.4531V15.5859H30.3352C31.0734 13.0047 33.7312 7.57969 35.6016 7.33359C37.4719 7.57969 40.1297 13.0047 40.868 15.5859H38.8281V16.6797H41.0156V18.8672H30.0781V16.6797ZM30.0781 42.3828V40.1953H31.7188V39.1016H30.0781V19.9609H41.0156V39.1016H38.2812V40.1953H41.0156V42.3828H37.1875V34.7266H33.9062V42.3828H30.0781ZM35 51.1328V56.6453C34.482 56.3203 33.8965 56.1182 33.2883 56.0547H32.8125V43.4766H33.9062V48.9453H37.1875V43.4766H38.2812V54.075C37.462 54.3104 36.7116 54.74 36.0938 55.3273V51.1328H35ZM35 47.8516V35.8203H36.0938V47.8516H35ZM25.0633 62.6172C24.478 62.6172 23.9168 62.3847 23.503 61.9709C23.0891 61.5571 22.8566 60.9958 22.8566 60.4105C22.8566 59.8253 23.0891 59.264 23.503 58.8502C23.9168 58.4364 24.478 58.2039 25.0633 58.2039C25.1598 58.1985 25.2566 58.1985 25.3531 58.2039L25.9328 58.2859L25.9711 57.7008C26.0281 56.9876 26.3312 56.3165 26.8286 55.8022C27.3259 55.288 27.9866 54.9626 28.6974 54.8818C29.4083 54.8011 30.1251 54.9699 30.7251 55.3594C31.3252 55.749 31.7712 56.335 31.9867 57.0172L32.1398 57.5203C32.8102 57.2568 33.5523 57.2393 34.2344 57.4711C33.8492 57.7586 33.5284 58.1236 33.2927 58.5425C33.0569 58.9614 32.9115 59.425 32.8656 59.9035C32.8198 60.382 32.8746 60.8648 33.0265 61.3209C33.1784 61.7769 33.424 62.1961 33.7477 62.5516C33.6088 62.5788 33.468 62.5953 33.3266 62.6008L25.0633 62.6172ZM45.8117 62.6172H36.3289C35.7388 62.6216 35.1682 62.4054 34.7291 62.0111C34.2901 61.6168 34.014 61.0727 33.9552 60.4855C33.8963 59.8982 34.0589 59.3102 34.411 58.8366C34.763 58.3629 35.2793 58.0378 35.8586 57.925L36.2305 57.8484L36.2906 57.4766C36.3695 56.9959 36.5702 56.5434 36.8737 56.1624C37.1772 55.7814 37.5733 55.4845 38.0242 55.3002C38.4751 55.1159 38.9658 55.0503 39.4493 55.1096C39.9328 55.1689 40.393 55.3512 40.7859 55.6391L41.1961 55.9453L41.5297 55.557C41.7508 55.2956 42.0264 55.0857 42.3372 54.9421C42.648 54.7985 42.9865 54.7247 43.3289 54.7258C43.9574 54.7258 44.5603 54.9751 45.0052 55.419C45.4502 55.8629 45.7009 56.4652 45.7023 57.0938C45.7023 57.1648 45.7023 57.2414 45.7023 57.3125L45.6531 57.8266L46.1672 57.9031C46.764 57.9846 47.3073 58.2904 47.6866 58.7584C48.0659 59.2263 48.2526 59.8212 48.2086 60.4219C48.1647 61.0227 47.8936 61.5841 47.4503 61.992C47.007 62.3998 46.425 62.6234 45.8227 62.6172H45.8117Z" fill="black"/>
<path d="M38.2812 54.075V43.4766H37.1875V48.9453H33.9062V43.4766H32.8125V56.0547H33.2883C33.8965 56.1182 34.482 56.3203 35 56.6453V51.1328H36.0938V55.3273C36.7116 54.74 37.462 54.3104 38.2812 54.075Z" fill="#FFE787"/>
<path d="M30.0781 19.9609V39.1016H31.7188V40.1953H30.0781V42.3828H33.9062V34.7266H37.1875V42.3828H41.0156V40.1953H38.2812V39.1016H41.0156V19.9609H30.0781Z" fill="white"/>
<path d="M35.6016 29.832C37.1117 29.832 38.3359 28.6078 38.3359 27.0977C38.3359 25.5875 37.1117 24.3633 35.6016 24.3633C34.0914 24.3633 32.8672 25.5875 32.8672 27.0977C32.8672 28.6078 34.0914 29.832 35.6016 29.832Z" fill="#7DC4C4"/>
<path d="M31.7734 27.0977C31.7734 27.8548 31.998 28.5949 32.4186 29.2244C32.8392 29.854 33.4371 30.3446 34.1366 30.6344C34.8361 30.9241 35.6058 30.9999 36.3484 30.8522C37.091 30.7045 37.7731 30.3399 38.3085 29.8046C38.8438 29.2692 39.2084 28.5871 39.3561 27.8445C39.5038 27.1019 39.428 26.3322 39.1383 25.6327C38.8485 24.9332 38.3579 24.3353 37.7284 23.9147C37.0988 23.494 36.3587 23.2695 35.6016 23.2695C34.5863 23.2695 33.6126 23.6729 32.8947 24.3908C32.1768 25.1087 31.7734 26.0824 31.7734 27.0977ZM35.6016 24.3633C36.1424 24.3633 36.671 24.5236 37.1207 24.8241C37.5704 25.1246 37.9208 25.5516 38.1278 26.0513C38.3348 26.5509 38.3889 27.1007 38.2834 27.6311C38.1779 28.1615 37.9175 28.6487 37.5351 29.0312C37.1527 29.4136 36.6654 29.674 36.135 29.7795C35.6046 29.885 35.0548 29.8308 34.5552 29.6239C34.0555 29.4169 33.6285 29.0665 33.328 28.6168C33.0276 28.1671 32.8672 27.6385 32.8672 27.0977C32.8672 26.3725 33.1553 25.677 33.6681 25.1642C34.1809 24.6514 34.8764 24.3633 35.6016 24.3633Z" fill="black"/>
<path d="M38.8281 16.6801V15.5863H40.868C40.1297 13.0051 37.4719 7.58008 35.6016 7.33398C33.7312 7.58008 31.0734 13.0051 30.3352 15.5863H34.4531V16.6801H30.0781V18.8676H41.0156V16.6801H38.8281Z" fill="#8242EB"/>
<path d="M41.0703 62.6172H45.8117C46.414 62.6234 46.996 62.3998 47.4393 61.992C47.8826 61.5841 48.1537 61.0227 48.1977 60.4219C48.2416 59.8212 48.0549 59.2263 47.6756 58.7584C47.2963 58.2904 46.753 57.9846 46.1562 57.9031L45.6421 57.8266L45.6914 57.3125C45.6914 57.2414 45.6914 57.1648 45.6914 57.0938C45.6899 56.4652 45.4392 55.8629 44.9943 55.419C44.5493 54.9751 43.9464 54.7258 43.3179 54.7258C42.9755 54.7247 42.637 54.7985 42.3262 54.9421C42.0154 55.0857 41.7398 55.2956 41.5187 55.557L41.1851 55.9453L40.7749 55.6391C40.382 55.3512 39.9218 55.1689 39.4383 55.1096C38.9548 55.0503 38.4641 55.1159 38.0132 55.3002C37.5623 55.4845 37.1662 55.7814 36.8627 56.1624C36.5592 56.5434 36.3585 56.9959 36.2796 57.4766L36.2195 57.8484L35.8476 57.925C35.2683 58.0378 34.7521 58.3629 34.4 58.8366C34.0479 59.3102 33.8853 59.8982 33.9442 60.4855C34.003 61.0727 34.2791 61.6168 34.7182 62.0111C35.1572 62.4054 35.7278 62.6216 36.3179 62.6172H41.0703Z" fill="white"/>
<path d="M14.6399 39.282C15.546 39.282 16.2805 38.5475 16.2805 37.6414C16.2805 36.7353 15.546 36.0008 14.6399 36.0008C13.7338 36.0008 12.9993 36.7353 12.9993 37.6414C12.9993 38.5475 13.7338 39.282 14.6399 39.282Z" fill="white"/>
<path d="M17.3743 37.6414C17.3743 37.1006 17.2139 36.5719 16.9134 36.1223C16.613 35.6726 16.1859 35.3221 15.6863 35.1152C15.1867 34.9082 14.6369 34.8541 14.1064 34.9596C13.576 35.0651 13.0888 35.3255 12.7064 35.7079C12.324 36.0903 12.0636 36.5776 11.9581 37.108C11.8526 37.6384 11.9067 38.1882 12.1137 38.6878C12.3206 39.1875 12.6711 39.6145 13.1208 39.915C13.5704 40.2154 14.0991 40.3758 14.6399 40.3758C15.3651 40.3758 16.0606 40.0877 16.5734 39.5749C17.0862 39.0621 17.3743 38.3666 17.3743 37.6414ZM14.6399 39.282C14.3154 39.282 13.9982 39.1858 13.7284 39.0055C13.4586 38.8253 13.2483 38.569 13.1242 38.2693C13 37.9695 12.9675 37.6396 13.0308 37.3213C13.0941 37.0031 13.2504 36.7108 13.4798 36.4813C13.7092 36.2519 14.0016 36.0956 14.3198 36.0323C14.6381 35.969 14.9679 36.0015 15.2677 36.1257C15.5675 36.2499 15.8237 36.4601 16.004 36.7299C16.1843 36.9997 16.2805 37.3169 16.2805 37.6414C16.2805 38.0765 16.1077 38.4938 15.8 38.8015C15.4923 39.1092 15.075 39.282 14.6399 39.282Z" fill="black"/>
<path d="M50.0007 52.0461C49.7844 52.0461 49.5729 52.1102 49.3931 52.2304C49.2132 52.3506 49.073 52.5214 48.9902 52.7213C48.9075 52.9211 48.8858 53.141 48.928 53.3532C48.9702 53.5654 49.0744 53.7603 49.2273 53.9132C49.3803 54.0662 49.5752 54.1704 49.7874 54.2126C49.9995 54.2548 50.2194 54.2331 50.4193 54.1503C50.6191 54.0675 50.79 53.9274 50.9102 53.7475C51.0303 53.5676 51.0945 53.3562 51.0945 53.1398C51.0945 52.8498 50.9793 52.5716 50.7741 52.3664C50.569 52.1613 50.2908 52.0461 50.0007 52.0461Z" fill="white"/>
<path d="M47.8132 53.1398C47.8132 53.5725 47.9415 53.9954 48.1819 54.3551C48.4223 54.7149 48.7639 54.9953 49.1636 55.1608C49.5633 55.3264 50.0032 55.3697 50.4275 55.2853C50.8518 55.2009 51.2416 54.9926 51.5475 54.6866C51.8535 54.3807 52.0618 53.9909 52.1462 53.5666C52.2306 53.1423 52.1873 52.7024 52.0217 52.3027C51.8562 51.903 51.5758 51.5614 51.216 51.321C50.8563 51.0806 50.4334 50.9523 50.0007 50.9523C49.4206 50.9523 48.8642 51.1828 48.4539 51.593C48.0437 52.0033 47.8132 52.5597 47.8132 53.1398ZM50.0007 54.2336C49.7844 54.2336 49.5729 54.1694 49.3931 54.0493C49.2132 53.9291 49.073 53.7582 48.9902 53.5584C48.9075 53.3585 48.8858 53.1386 48.928 52.9265C48.9702 52.7143 49.0744 52.5194 49.2273 52.3664C49.3803 52.2135 49.5752 52.1093 49.7874 52.0671C49.9995 52.0249 50.2194 52.0466 50.4193 52.1293C50.6191 52.2121 50.79 52.3523 50.9102 52.5322C51.0303 52.712 51.0945 52.9235 51.0945 53.1398C51.0945 53.4299 50.9792 53.7081 50.7741 53.9132C50.569 54.1183 50.2908 54.2336 50.0007 54.2336Z" fill="black"/>
<path d="M54.6875 45.6641H55.7812V44.5703H56.875V43.4766H55.7812V42.3828H54.6875V43.4766H53.5938V44.5703H54.6875V45.6641Z" fill="black"/>
<path d="M22.4219 30.3516V29.2578H23.5156V28.1641H22.4219V27.0703H21.3281V28.1641H20.2344V29.2578H21.3281V30.3516H22.4219Z" fill="white"/>
<path d="M48.125 30.3516H49.2188V29.2578H50.3125V28.1641H49.2188V27.0703H48.125V28.1641H47.0312V29.2578H48.125V30.3516Z" fill="#FFEFA6"/>
<path d="M17.5 50.0391H16.4062V51.6797H14.7656V52.7734H16.4062V54.4141H17.5V52.7734H19.1406V51.6797H17.5V50.0391Z" fill="#FFEFA6"/>
<path d="M15.8594 16.1328H16.9531V14.4922H18.5938V13.3984H16.9531V11.7578H15.8594V13.3984H14.2188V14.4922H15.8594V16.1328Z" fill="black"/>
<path d="M25.1562 47.3047H25.7852L27.3492 40.1953H28.9844V35.8203H25.1562V47.3047Z" fill="#DE856F"/>
<path d="M42.1094 40.1953H43.8539L45.418 47.3047H45.9375V35.8203H42.1094V40.1953Z" fill="#DE856F"/>
<path d="M36.0938 35.8203H35V47.8516H36.0938V35.8203Z" fill="#DE856F"/>
<path d="M53.5938 19.9609H54.6875V18.8672H55.7812V17.7734H54.6875V16.6797H53.5938V17.7734H52.5V18.8672H53.5938V19.9609Z" fill="#DE856F"/>
<path d="M35.2133 9.18164C34.0072 10.527 33.0415 12.0698 32.3586 13.7426L33.3758 14.1473C34.0042 12.6132 34.8881 11.1968 35.9899 9.9582L35.2133 9.18164Z" fill="#7DC4C4"/>
</svg>
