<svg width="60" height="59" viewBox="0 0 60 59" fill="none" xmlns="http://www.w3.org/2000/svg">
<path d="M55.9999 2.6665C57.4733 2.6665 58.6666 3.85984 58.6666 5.33317C58.6666 6.8065 57.4733 7.99984 55.9999 7.99984C54.5266 7.99984 53.3333 6.8065 53.3333 5.33317C53.3333 3.85984 54.5266 2.6665 55.9999 2.6665Z" fill="#FD5959"/>
<path d="M4.66675 58C6.87589 58 8.66675 56.2091 8.66675 54C8.66675 51.7909 6.87589 50 4.66675 50C2.45761 50 0.666748 51.7909 0.666748 54C0.666748 56.2091 2.45761 58 4.66675 58Z" fill="#FD5959"/>
<path d="M57.0228 27.5467C56.7441 24.4974 55.9454 21.6027 54.7241 18.9387L50.2508 18.688L52.2614 14.696C50.5401 12.2627 48.4041 10.1267 45.9614 8.39604L41.9788 10.4067L41.7188 5.94271C39.0641 4.72138 36.1589 3.92271 33.1202 3.64404L30.6668 7.37604L28.2134 3.64404C25.1641 3.92271 22.2694 4.72138 19.6149 5.94271L19.3549 10.4067L15.3629 8.39604C12.9296 10.1267 10.7936 12.2627 9.07223 14.696L11.0736 18.688L6.6097 18.9387C5.38837 21.6027 4.5897 24.4974 4.31104 27.5467L8.04303 30L4.31104 32.4534C4.5897 35.492 5.38837 38.3974 6.6097 41.0519L11.0736 41.3119L9.07223 45.2946C10.7936 47.7372 12.9296 49.8626 15.3629 51.5946L19.3549 49.5839L19.6149 54.0479C22.2694 55.2784 25.1641 56.0772 28.2134 56.3558L30.6668 52.6147L33.1201 56.3559C36.1693 56.0772 39.064 55.2786 41.7186 54.048L41.9786 49.584L45.9706 51.5947C48.404 49.8627 50.5293 47.7374 52.2613 45.2947L50.2506 41.312L54.7146 41.052C55.9453 38.3975 56.744 35.4922 57.0226 32.4428L53.2908 30L57.0228 27.5467Z" fill="#3D4665"/>
<path d="M30.6667 36.4976C33.4707 36.4976 36.1174 37.1748 38.4507 38.3748C36.9374 43.4989 34.0747 46.9762 30.7827 47.0561C30.7441 47.0574 30.7054 47.0574 30.6667 47.0574V36.4976Z" fill="#57C6FD"/>
<path d="M22.8825 38.3745C24.3959 43.4986 27.2585 46.976 30.5505 47.0558C25.7439 47.0253 21.4079 45.0038 18.3279 41.7758L18.3745 41.7305C19.6745 40.3772 21.1973 39.2398 22.8825 38.3745Z" fill="#57C6FD"/>
<path d="M30.6666 30.0001V36.4975C27.8626 36.4975 25.2159 37.1747 22.8826 38.3747C22.1493 35.9013 21.7319 33.0428 21.7319 30H30.6666V30.0001Z" fill="#57C6FD"/>
<path d="M39.6014 30H47.724C47.724 34.5667 45.928 38.716 43.0054 41.7773C41.6934 40.4053 40.156 39.2507 38.4507 38.3745C39.184 35.9013 39.6014 33.0427 39.6014 30Z" fill="#57C6FD"/>
<path d="M30.7827 12.9438C35.588 12.9745 39.9227 14.9945 43.004 18.2212C41.6934 19.5945 40.1547 20.7492 38.4507 21.6238C36.936 16.5012 34.0734 13.0238 30.7827 12.9438Z" fill="#57C6FD"/>
<path d="M39.6014 30H30.6667V23.5014C33.4721 23.5014 36.1174 22.824 38.4507 21.624C39.1841 24.0987 39.6014 26.956 39.6014 30Z" fill="#57C6FD"/>
<path d="M22.8827 21.6239C22.1494 24.0985 21.732 26.9559 21.732 29.9999H13.6094C13.6094 25.4319 15.4054 21.2825 18.3292 18.2212C19.64 19.5945 21.1787 20.7492 22.8827 21.6239Z" fill="#57C6FD"/>
<path d="M30.6666 12.9429V23.5015C27.8612 23.5015 25.2159 22.8242 22.8826 21.6242C24.3972 16.5015 27.2599 13.0242 30.5506 12.9442C30.5892 12.9429 30.6279 12.9429 30.6666 12.9429Z" fill="#57C6FD"/>
<path d="M43.0054 41.7772C39.9241 45.0052 35.5894 47.0252 30.7827 47.0558C34.0746 46.9758 36.9374 43.4985 38.4507 38.3745C40.156 39.2505 41.6934 40.4052 43.0054 41.7772Z" fill="#65E4FD"/>
<path d="M30.6666 36.4976V47.0574C30.6279 47.0574 30.5892 47.0574 30.5506 47.0561C27.2587 46.9761 24.3959 43.4988 22.8826 38.3748C25.2159 37.1749 27.8626 36.4976 30.6666 36.4976Z" fill="#65E4FD"/>
<path d="M30.6667 30H39.6014C39.6014 33.0427 39.1841 35.9013 38.4507 38.3747C36.1174 37.1747 33.4707 36.4975 30.6667 36.4975V30Z" fill="#65E4FD"/>
<path d="M21.7322 30C21.7322 33.0427 22.1495 35.9013 22.8828 38.3747C21.1975 39.24 19.6747 40.3775 18.3747 41.7308L18.328 41.7761C15.404 38.7148 13.6094 34.5668 13.6094 30.0001H21.7322V30Z" fill="#65E4FD"/>
<path d="M47.724 29.9999H39.6014C39.6014 26.9559 39.184 24.0985 38.4507 21.6239C40.1547 20.7492 41.6933 19.5945 43.004 18.2212C45.928 21.2825 47.724 25.4319 47.724 29.9999Z" fill="#65E4FD"/>
<path d="M30.6666 23.5014V30H21.7319C21.7319 26.956 22.1493 24.0987 22.8826 21.624C25.2159 22.824 27.8613 23.5014 30.6666 23.5014Z" fill="#65E4FD"/>
<path d="M30.7827 12.9442C34.0734 13.0242 36.9359 16.5015 38.4507 21.6242C36.1174 22.8242 33.4721 23.5015 30.6667 23.5015V12.9429C30.7054 12.9429 30.7441 12.9429 30.7827 12.9442Z" fill="#65E4FD"/>
<path d="M30.5507 12.9438C27.26 13.0238 24.3975 16.5012 22.8827 21.6238C21.1787 20.7492 19.64 19.5945 18.3293 18.2212C21.4107 14.9945 25.7453 12.9745 30.5507 12.9438Z" fill="#65E4FD"/>
<path d="M59 15.3335C59.5523 15.3335 60 14.8858 60 14.3335C60 13.7812 59.5523 13.3335 59 13.3335C58.4477 13.3335 58 13.7812 58 14.3335C58 14.8858 58.4477 15.3335 59 15.3335Z" fill="black"/>
<path d="M58.6667 45.3335C59.219 45.3335 59.6667 44.8858 59.6667 44.3335C59.6667 43.7812 59.219 43.3335 58.6667 43.3335C58.1145 43.3335 57.6667 43.7812 57.6667 44.3335C57.6667 44.8858 58.1145 45.3335 58.6667 45.3335Z" fill="black"/>
<path d="M47 58C47.5523 58 48 57.5523 48 57C48 56.4477 47.5523 56 47 56C46.4477 56 46 56.4477 46 57C46 57.5523 46.4477 58 47 58Z" fill="black"/>
<path d="M41 2C41.5523 2 42 1.55228 42 1C42 0.447715 41.5523 0 41 0C40.4477 0 40 0.447715 40 1C40 1.55228 40.4477 2 41 2Z" fill="black"/>
<path d="M16.3333 58C16.8855 58 17.3333 57.5523 17.3333 57C17.3333 56.4477 16.8855 56 16.3333 56C15.781 56 15.3333 56.4477 15.3333 57C15.3333 57.5523 15.781 58 16.3333 58Z" fill="black"/>
<path d="M5 5.3335C5.55228 5.3335 6 4.88578 6 4.3335C6 3.78121 5.55228 3.3335 5 3.3335C4.44772 3.3335 4 3.78121 4 4.3335C4 4.88578 4.44772 5.3335 5 5.3335Z" fill="black"/>
<path d="M30.551 47.7227C30.5456 47.7227 30.5401 47.7227 30.5346 47.7224C27.0114 47.6368 23.912 44.2131 22.2433 38.5635C21.4729 35.9647 21.0654 33.0032 21.0654 30C21.0654 26.9973 21.4728 24.0355 22.2436 21.4347C23.9134 15.7865 27.013 12.3632 30.5346 12.2776C30.8976 12.2677 31.2084 12.5599 31.2173 12.9279C31.2261 13.296 30.935 13.6016 30.5669 13.6105C27.6969 13.6803 24.9974 16.8233 23.5221 21.8131C22.7872 24.2931 22.3988 27.1239 22.3988 30C22.3988 32.8765 22.787 35.7069 23.522 38.1852C24.9961 43.1764 27.6954 46.3199 30.5669 46.3896C30.935 46.3984 31.2261 46.704 31.2173 47.0721C31.2085 47.4348 30.9117 47.7227 30.551 47.7227Z" fill="black"/>
<path d="M30.7824 47.7227C30.4218 47.7227 30.125 47.4348 30.1162 47.0721C30.1074 46.704 30.3984 46.3984 30.7666 46.3896C33.638 46.3199 36.3375 43.1763 37.8114 38.1859C38.5463 35.7069 38.9347 32.8767 38.9347 30C38.9347 27.1239 38.5463 24.2931 37.8115 21.8135C36.336 16.8233 33.6364 13.6803 30.7666 13.6105C30.3984 13.6016 30.1074 13.296 30.1162 12.9279C30.1251 12.5599 30.4307 12.2676 30.7988 12.2776C34.3203 12.3632 37.4198 15.7865 39.09 21.4351C39.8606 24.0356 40.268 26.9975 40.268 30.0001C40.268 33.0032 39.8606 35.9647 39.0899 38.5641C37.4216 44.2131 34.322 47.6369 30.7988 47.7225C30.7934 47.7227 30.7879 47.7227 30.7824 47.7227Z" fill="black"/>
<path d="M30.6668 24.1679C27.8168 24.1679 25.0953 23.5115 22.578 22.2169C20.8132 21.311 19.2213 20.1215 17.8472 18.6817C17.593 18.4153 17.6029 17.9933 17.8692 17.7391C18.1356 17.485 18.5577 17.4947 18.8118 17.7611C20.0828 19.093 21.5549 20.1931 23.1873 21.031C25.5146 22.2279 28.0309 22.8347 30.6669 22.8347C33.3028 22.8347 35.8192 22.2279 38.146 21.0313C39.7788 20.1931 41.2509 19.093 42.522 17.7611C42.776 17.4947 43.198 17.4849 43.4645 17.7391C43.7309 17.9934 43.7406 18.4154 43.4865 18.6817C42.1121 20.1215 40.5204 21.3111 38.7553 22.2171C36.2382 23.5114 33.5168 24.1679 30.6668 24.1679Z" fill="black"/>
<path d="M43.0055 42.4439C42.8299 42.4439 42.6544 42.3748 42.5236 42.238C41.2492 40.9054 39.7764 39.8051 38.146 38.9675C35.8189 37.7707 33.3027 37.1639 30.6667 37.1639C28.0307 37.1639 25.5144 37.7707 23.1875 38.9672C21.5713 39.7971 20.114 40.882 18.8555 42.1923C18.6004 42.4578 18.1784 42.4663 17.9129 42.2112C17.6473 41.9563 17.6388 41.5342 17.8939 41.2687C19.2548 39.8519 20.8308 38.6786 22.5781 37.7814C25.0596 36.5052 27.8568 35.8306 30.6667 35.8306C33.4767 35.8306 36.2737 36.5052 38.7556 37.7816C40.518 38.687 42.11 39.8763 43.4871 41.3164C43.7416 41.5826 43.7321 42.0046 43.4661 42.259C43.3371 42.3826 43.1711 42.4439 43.0055 42.4439Z" fill="black"/>
<path d="M47.724 30.6668H13.6093C13.2412 30.6668 12.9426 30.3684 12.9426 30.0002C12.9426 29.6319 13.2412 29.3335 13.6093 29.3335H47.724C48.0922 29.3335 48.3906 29.6319 48.3906 30.0002C48.3906 30.3684 48.0922 30.6668 47.724 30.6668Z" fill="black"/>
<path d="M30.6667 47.7239C30.2984 47.7239 30 47.4255 30 47.0572V12.9425C30 12.5744 30.2984 12.2759 30.6667 12.2759C31.0349 12.2759 31.3333 12.5744 31.3333 12.9425V47.0572C31.3333 47.4253 31.0349 47.7239 30.6667 47.7239Z" fill="black"/>
<path d="M30.6666 47.7241C30.6238 47.7241 30.5809 47.7239 30.538 47.7226C25.697 47.6898 21.1901 45.7415 17.8456 42.2363C14.684 38.9262 12.9426 34.5805 12.9426 30.0001C12.9426 25.4189 14.6845 21.0723 17.8473 17.7609C21.1925 14.2578 25.699 12.3106 30.5374 12.2774C30.6237 12.2747 30.7098 12.2747 30.7961 12.2774C35.6345 12.3106 40.141 14.2578 43.4864 17.7609C46.649 21.0722 48.3908 25.4187 48.3908 29.9999C48.3908 34.5798 46.6494 38.9258 43.4877 42.2377C40.1426 45.7418 35.6356 47.6897 30.7956 47.7225C30.7525 47.7239 30.7096 47.7241 30.6666 47.7241ZM30.6666 46.3907C30.6986 46.3907 30.7292 46.3907 30.7602 46.3898C30.7662 46.3895 30.7724 46.3894 30.7784 46.3894C35.2569 46.3609 39.428 44.5595 42.523 41.3171C45.447 38.2545 47.0573 34.2354 47.0573 30.0001C47.0573 25.7635 45.4466 21.7439 42.5218 18.6819C39.4262 15.4402 35.2557 13.6394 30.7784 13.6107C30.772 13.6107 30.7654 13.6106 30.7592 13.6103C30.7282 13.6093 30.6968 13.6093 30.6668 13.6094C30.6364 13.6093 30.6052 13.6093 30.5744 13.6103C30.568 13.6105 30.5614 13.6107 30.555 13.6107C26.0777 13.6393 21.9072 15.4402 18.8116 18.6818C15.8868 21.7439 14.276 25.7635 14.276 30.0001C14.276 34.2359 15.8862 38.2545 18.8101 41.3157C21.9049 44.559 26.0758 46.3609 30.555 46.3894C30.561 46.3894 30.5672 46.3895 30.5732 46.3898C30.6042 46.3907 30.6349 46.3905 30.6666 46.3907Z" fill="black"/>
<path d="M33.1199 57.0225C32.8966 57.0225 32.6865 56.9104 32.5625 56.7215L30.6666 53.8303L28.7707 56.7215C28.6355 56.9275 28.3989 57.0419 28.1525 57.0197C25.0845 56.7393 22.1175 55.9429 19.3341 54.6527C19.1111 54.5495 18.9633 54.3319 18.9489 54.0867L18.7479 50.6357L15.6622 52.1899C15.4414 52.3009 15.1771 52.2809 14.9758 52.1375C12.4497 50.3395 10.2798 48.1663 8.52673 45.6784C8.385 45.4775 8.36553 45.2148 8.47593 44.9951L10.0221 41.9184L6.5702 41.7172C6.3242 41.7029 6.10633 41.5541 6.00326 41.3304C4.72006 38.5412 3.92713 35.5749 3.64633 32.5141C3.62393 32.2689 3.73833 32.0313 3.94406 31.8961L6.829 29.9999L3.94446 28.1036C3.73873 27.9684 3.62446 27.7309 3.64673 27.4859C3.9258 24.432 4.7186 21.4628 6.0034 18.6607C6.1062 18.436 6.32513 18.2867 6.57193 18.2728L10.0225 18.0791L8.47606 14.9945C8.3658 14.7745 8.38553 14.5116 8.5278 14.3108C10.2962 11.8111 12.4657 9.63812 14.9763 7.85252C15.1777 7.70932 15.4418 7.68906 15.6625 7.80039L18.7482 9.35452L18.9491 5.90372C18.9634 5.65772 19.1123 5.43986 19.3359 5.33679C22.1279 4.05239 25.0943 3.25946 28.1526 2.97986C28.397 2.95732 28.6351 3.07186 28.7705 3.27759L30.6666 6.16226L32.563 3.27772C32.6983 3.07199 32.9359 2.95772 33.181 2.98012C36.2418 3.26079 39.2081 4.05372 41.9973 5.33692C42.2211 5.43986 42.3698 5.65786 42.3841 5.90386L42.5851 9.35359L45.6609 7.80079C45.8809 7.68946 46.1449 7.70906 46.3467 7.85199C48.8606 9.63306 51.0337 11.8061 52.8055 14.3109C52.9478 14.5123 52.9675 14.7756 52.8567 14.9959L51.3037 18.0793L54.7611 18.2731C55.0081 18.2869 55.2269 18.4361 55.3299 18.6608C56.6146 21.4629 57.4075 24.4321 57.6866 27.486C57.709 27.7311 57.5945 27.9685 57.3889 28.1037L54.5062 29.9988L57.3878 31.8848C57.5941 32.0199 57.709 32.2577 57.6866 32.5033C57.4054 35.5803 56.609 38.5507 55.3195 41.3323C55.2163 41.5552 54.9987 41.7032 54.7535 41.7175L51.3037 41.9185L52.8566 44.9943C52.9679 45.2147 52.9481 45.4788 52.8053 45.6803C51.0307 48.1829 48.8614 50.3555 46.3574 52.1379C46.1559 52.2813 45.8918 52.3012 45.671 52.1903L42.5853 50.6361L42.3842 54.0871C42.3699 54.3323 42.2219 54.5499 41.999 54.6531C39.2158 55.9433 36.2489 56.7396 33.1807 57.0201C33.1603 57.0216 33.1401 57.0225 33.1199 57.0225ZM20.2567 53.6075C22.6751 54.6829 25.2349 55.37 27.8773 55.6527L30.109 52.2491C30.2322 52.0612 30.4418 51.948 30.6666 51.948C30.8914 51.948 31.1009 52.0612 31.2242 52.2491L33.4561 55.6527C36.0985 55.37 38.6582 54.6829 41.0763 53.6075L41.313 49.5451C41.3261 49.3209 41.451 49.1185 41.6455 49.0063C41.8399 48.8943 42.0781 48.8876 42.2783 48.9884L45.9083 50.8168C48.0462 49.2455 49.9187 47.3701 51.4835 45.2335L49.6553 41.6123C49.5541 41.4119 49.5606 41.1739 49.6727 40.9792C49.7849 40.7845 49.9874 40.6595 50.2117 40.6464L54.2738 40.4097C55.3489 37.9925 56.0358 35.4293 56.3191 32.7792L52.9253 30.5579C52.7373 30.4348 52.6239 30.2253 52.6237 30.0007C52.6234 29.776 52.7365 29.5664 52.9242 29.4429L56.3191 27.2112C56.0377 24.5791 55.3533 22.0165 54.2818 19.5817L50.2133 19.3537C49.9887 19.3412 49.7858 19.2164 49.6733 19.0217C49.5607 18.8271 49.5539 18.5889 49.655 18.3883L51.4839 14.7572C49.9214 12.6193 48.0458 10.7436 45.9002 9.17372L42.2789 11.0019C42.0786 11.1031 41.8405 11.0965 41.6458 10.9844C41.4511 10.8724 41.3261 10.6697 41.313 10.4455L41.0765 6.38452C38.6526 5.31439 36.0929 4.63012 33.4554 4.34746L31.2237 7.74226C31.1005 7.92986 30.8911 8.04266 30.6666 8.04266C30.4421 8.04266 30.2327 7.92972 30.1094 7.74226L27.8778 4.34732C25.2425 4.62906 22.6826 5.31346 20.2567 6.38452L20.0202 10.4455C20.0071 10.6696 19.8822 10.8721 19.6877 10.9843C19.4933 11.0965 19.2554 11.1031 19.0549 11.0021L15.4247 9.17386C13.2813 10.7479 11.4085 12.6235 9.84873 14.7579L11.6693 18.3893C11.7699 18.59 11.7627 18.828 11.6501 19.0223C11.5375 19.2167 11.3349 19.3412 11.1106 19.3537L7.05126 19.5817C5.97966 22.0167 5.29526 24.5793 5.0138 27.2113L8.40886 29.4431C8.59633 29.5664 8.70926 29.7757 8.70926 30.0001C8.70926 30.2245 8.59633 30.434 8.40886 30.5572L5.01393 32.7889C5.29673 35.4264 5.981 37.9863 7.05113 40.41L11.1119 40.6465C11.3361 40.6596 11.5385 40.7844 11.6506 40.9788C11.7629 41.1731 11.7697 41.4108 11.669 41.6113L9.8486 45.234C11.3958 47.358 13.269 49.2332 15.4247 50.8169L19.0549 48.9885C19.2554 48.8877 19.4933 48.8944 19.6877 49.0064C19.8822 49.1187 20.0071 49.3211 20.0202 49.5452L20.2567 53.6075Z" fill="black"/>
<path d="M56.0001 8.66667C54.1621 8.66667 52.6667 7.17133 52.6667 5.33333C52.6667 3.49533 54.1619 2 56.0001 2C57.8381 2 59.3334 3.49533 59.3334 5.33333C59.3334 7.17133 57.8381 8.66667 56.0001 8.66667ZM56.0001 3.33333C54.8973 3.33333 54.0001 4.23053 54.0001 5.33333C54.0001 6.43613 54.8973 7.33333 56.0001 7.33333C57.1029 7.33333 58.0001 6.43613 58.0001 5.33333C58.0001 4.23053 57.1029 3.33333 56.0001 3.33333Z" fill="black"/>
<path d="M4.66667 58.6668C2.09347 58.6668 0 56.5734 0 54.0002C0 51.427 2.09347 49.3335 4.66667 49.3335C7.23987 49.3335 9.33333 51.427 9.33333 54.0002C9.33333 56.5734 7.23987 58.6668 4.66667 58.6668ZM4.66667 50.6668C2.82867 50.6668 1.33333 52.1622 1.33333 54.0002C1.33333 55.8382 2.82867 57.3335 4.66667 57.3335C6.50467 57.3335 8 55.8382 8 54.0002C8 52.1622 6.50467 50.6668 4.66667 50.6668Z" fill="black"/>
</svg>
