<svg width="60" height="60" viewBox="0 0 60 60" fill="none" xmlns="http://www.w3.org/2000/svg">
<path d="M37.5 49.6875H22.5V57.1875H37.5V49.6875Z" fill="#6F6F6F"/>
<path d="M57.1875 44.0625V45.9375C57.1875 46.9321 56.7924 47.8859 56.0891 48.5891C55.3859 49.2924 54.4321 49.6875 53.4375 49.6875H6.5625C5.56794 49.6875 4.61411 49.2924 3.91085 48.5891C3.20759 47.8859 2.8125 46.9321 2.8125 45.9375V44.0625H57.1875Z" fill="#D3D3D3"/>
<path d="M57.1875 17.8125V44.0625H2.8125V17.8125C2.8125 16.8179 3.20759 15.8641 3.91085 15.1609C4.61411 14.4576 5.56794 14.0625 6.5625 14.0625H53.4375C54.4321 14.0625 55.3859 14.4576 56.0891 15.1609C56.7924 15.8641 57.1875 16.8179 57.1875 17.8125Z" fill="#1B79DC"/>
<path d="M53.4375 14.0625H49.6125L42.6375 44.0625H57.1875V17.8125C57.1875 16.8179 56.7924 15.8641 56.0891 15.1609C55.3858 14.4576 54.432 14.0625 53.4375 14.0625Z" fill="#0057B8"/>
<path d="M7.5 38.4375C8.53553 38.4375 9.375 37.598 9.375 36.5625C9.375 35.527 8.53553 34.6875 7.5 34.6875C6.46447 34.6875 5.625 35.527 5.625 36.5625C5.625 37.598 6.46447 38.4375 7.5 38.4375Z" fill="#0057B8"/>
<path d="M9.375 29.0625C9.375 28.027 8.53553 27.1875 7.5 27.1875C6.46447 27.1875 5.625 28.027 5.625 29.0625V30.9375C5.625 31.973 6.46447 32.8125 7.5 32.8125C8.53553 32.8125 9.375 31.973 9.375 30.9375V29.0625Z" fill="#0057B8"/>
<path d="M57.1875 17.8125V19.6875H2.8125V17.8125C2.8125 16.8179 3.20759 15.8641 3.91085 15.1609C4.61411 14.4576 5.56794 14.0625 6.5625 14.0625H53.4375C54.4321 14.0625 55.3859 14.4576 56.0891 15.1609C56.7924 15.8641 57.1875 16.8179 57.1875 17.8125Z" fill="#D3D3D3"/>
<path d="M43.125 2.8125H16.875V19.6875H43.125V2.8125Z" fill="#6F6F6F"/>
<path d="M23.4375 23.4375H15V25.3125H23.4375V23.4375Z" fill="black"/>
<path d="M20.625 27.1875H15V29.0625H20.625V27.1875Z" fill="black"/>
<path d="M29.0625 27.1875H22.5V29.0625H29.0625V27.1875Z" fill="black"/>
<path d="M16.875 30.9375H15V32.8125H16.875V30.9375Z" fill="black"/>
<path d="M29.0625 30.9375H18.75V32.8125H29.0625V30.9375Z" fill="black"/>
<path d="M20.625 34.6875H15V36.5625H20.625V34.6875Z" fill="black"/>
<path d="M29.0625 34.6875H22.5V36.5625H29.0625V34.6875Z" fill="black"/>
<path d="M18.75 38.4375H15V40.3125H18.75V38.4375Z" fill="black"/>
<path d="M29.0625 38.4375H20.625V40.3125H29.0625V38.4375Z" fill="black"/>
<path d="M36.5625 30.9375H30.9375V32.8125H36.5625V30.9375Z" fill="black"/>
<path d="M36.5625 38.4375H30.9375V40.3125H36.5625V38.4375Z" fill="black"/>
<path d="M13.125 27.1875H11.25V29.0625H13.125V27.1875Z" fill="black"/>
<path d="M13.125 30.9375H11.25V32.8125H13.125V30.9375Z" fill="black"/>
<path d="M13.125 34.6875H11.25V36.5625H13.125V34.6875Z" fill="black"/>
<path d="M13.125 38.4375H11.25V40.3125H13.125V38.4375Z" fill="black"/>
<path d="M13.125 23.4375H11.25V25.3125H13.125V23.4375Z" fill="black"/>
<path d="M48.75 27.1875H46.875V29.0625H48.75V27.1875Z" fill="black"/>
<path d="M48.75 30.9375H46.875V32.8125H48.75V30.9375Z" fill="black"/>
<path d="M48.75 34.6875H46.875V36.5625H48.75V34.6875Z" fill="black"/>
<path d="M48.75 38.4375H46.875V40.3125H48.75V38.4375Z" fill="black"/>
<path d="M48.75 23.4375H46.875V25.3125H48.75V23.4375Z" fill="black"/>
<path d="M44.0625 19.6875V2.8125C44.0625 2.56386 43.9637 2.3254 43.7879 2.14959C43.6121 1.97377 43.3736 1.875 43.125 1.875H16.875C16.6264 1.875 16.3879 1.97377 16.2121 2.14959C16.0363 2.3254 15.9375 2.56386 15.9375 2.8125V19.6875C15.9375 19.9361 16.0363 20.1746 16.2121 20.3504C16.3879 20.5262 16.6264 20.625 16.875 20.625H43.125C43.3736 20.625 43.6121 20.5262 43.7879 20.3504C43.9637 20.1746 44.0625 19.9361 44.0625 19.6875ZM42.1875 18.75H17.8125V3.75H42.1875V18.75Z" fill="black"/>
<path d="M23.7094 15.6652L25.0407 14.334L21.9469 11.2496L25.0407 8.16523L23.7094 6.83398L19.9594 10.584C19.8716 10.6711 19.8018 10.7748 19.7542 10.8891C19.7066 11.0033 19.6821 11.1258 19.6821 11.2496C19.6821 11.3734 19.7066 11.4959 19.7542 11.6101C19.8018 11.7244 19.8716 11.8281 19.9594 11.9152L23.7094 15.6652Z" fill="black"/>
<path d="M36.2907 15.6652L40.0407 11.9152C40.1286 11.8281 40.1983 11.7244 40.2459 11.6101C40.2935 11.4959 40.318 11.3734 40.318 11.2496C40.318 11.1258 40.2935 11.0033 40.2459 10.8891C40.1983 10.7748 40.1286 10.6711 40.0407 10.584L36.2907 6.83398L34.9595 8.16523L38.0532 11.2496L34.9595 14.334L36.2907 15.6652Z" fill="black"/>
<path d="M32.9647 5.10621L25.4658 16.3545L27.0259 17.3946L34.5248 6.14627L32.9647 5.10621Z" fill="black"/>
<path d="M53.4375 13.125H45.9375V15H53.4375C54.1834 15 54.8988 15.2963 55.4262 15.8238C55.9537 16.3512 56.25 17.0666 56.25 17.8125V18.75H45.9375V20.625H56.25V43.125H3.75V20.625H14.0625V18.75H3.75V17.8125C3.75 17.0666 4.04632 16.3512 4.57376 15.8238C5.10121 15.2963 5.81658 15 6.5625 15H14.0625V13.125H6.5625C5.3193 13.125 4.12701 13.6189 3.24794 14.4979C2.36886 15.377 1.875 16.5693 1.875 17.8125V45.9375C1.875 47.1807 2.36886 48.373 3.24794 49.2521C4.12701 50.1311 5.3193 50.625 6.5625 50.625H21.5625V56.25H15.9375V58.125H44.0625V56.25H38.4375V50.625H53.4375C54.6807 50.625 55.873 50.1311 56.7521 49.2521C57.6311 48.373 58.125 47.1807 58.125 45.9375V17.8125C58.125 16.5693 57.6311 15.377 56.7521 14.4979C55.873 13.6189 54.6807 13.125 53.4375 13.125ZM36.5625 56.25H23.4375V50.625H36.5625V56.25ZM56.25 45.9375C56.25 46.6834 55.9537 47.3988 55.4262 47.9262C54.8988 48.4537 54.1834 48.75 53.4375 48.75H6.5625C5.81658 48.75 5.10121 48.4537 4.57376 47.9262C4.04632 47.3988 3.75 46.6834 3.75 45.9375V45H56.25V45.9375Z" fill="black"/>
<path d="M30.0749 47.8129C30.5512 47.8129 30.9374 47.4267 30.9374 46.9504C30.9374 46.474 30.5512 46.0879 30.0749 46.0879C29.5986 46.0879 29.2124 46.474 29.2124 46.9504C29.2124 47.4267 29.5986 47.8129 30.0749 47.8129Z" fill="black"/>
</svg>
