<svg width="40" height="40" viewBox="0 0 40 40" fill="none" xmlns="http://www.w3.org/2000/svg">
<path d="M15.8333 22.9167C15.8333 24.5333 17.0833 25.8333 18.6166 25.8333H21.7499C23.0832 25.8333 24.1666 24.7 24.1666 23.2834C24.1666 21.7667 23.4999 21.2167 22.5166 20.8667L17.4999 19.1167C16.5166 18.7667 15.8499 18.2334 15.8499 16.7C15.8499 15.3 16.9332 14.15 18.2666 14.15H21.3999C22.9332 14.15 24.1833 15.45 24.1833 17.0667" stroke="#F70D84" stroke-width="1.5" stroke-linecap="round" stroke-linejoin="round"/>
<path d="M20 12.5V27.5" stroke="#F70D84" stroke-width="1.5" stroke-linecap="round" stroke-linejoin="round"/>
<path d="M36.6666 20C36.6666 29.2 29.1999 36.6667 19.9999 36.6667C10.7999 36.6667 3.33325 29.2 3.33325 20C3.33325 10.8 10.7999 3.33337 19.9999 3.33337" stroke="#F70D84" stroke-width="1.5" stroke-linecap="round" stroke-linejoin="round"/>
<path d="M28.3333 5V11.6667H34.9999" stroke="#F70D84" stroke-width="1.5" stroke-linecap="round" stroke-linejoin="round"/>
<path d="M36.6666 3.33337L28.3333 11.6667" stroke="#F70D84" stroke-width="1.5" stroke-linecap="round" stroke-linejoin="round"/>
</svg>
