<svg width="40" height="40" viewBox="0 0 40 40" fill="none" xmlns="http://www.w3.org/2000/svg">
<path d="M10.6167 15.85C3.8167 16.3333 3.83337 26.1833 10.6167 26.6667H26.7167C28.6667 26.6833 30.5501 25.95 32.0001 24.6334C36.7667 20.4667 34.2167 12.1333 27.9334 11.3333C25.6834 -2.23337 6.03338 2.91667 10.6834 15.85" stroke="#F70D84" stroke-width="1.5" stroke-miterlimit="10" stroke-linecap="round" stroke-linejoin="round"/>
<path d="M20 26.6666V31.6666" stroke="#F70D84" stroke-width="1.5" stroke-miterlimit="10" stroke-linecap="round" stroke-linejoin="round"/>
<path d="M20.0001 38.3333C21.841 38.3333 23.3334 36.8409 23.3334 35C23.3334 33.159 21.841 31.6666 20.0001 31.6666C18.1591 31.6666 16.6667 33.159 16.6667 35C16.6667 36.8409 18.1591 38.3333 20.0001 38.3333Z" stroke="#F70D84" stroke-width="1.5" stroke-miterlimit="10" stroke-linecap="round" stroke-linejoin="round"/>
<path d="M29.9999 35H23.3333" stroke="#F70D84" stroke-width="1.5" stroke-miterlimit="10" stroke-linecap="round" stroke-linejoin="round"/>
<path d="M16.6667 35H10" stroke="#F70D84" stroke-width="1.5" stroke-miterlimit="10" stroke-linecap="round" stroke-linejoin="round"/>
</svg>
