<svg width="16" height="16" viewBox="0 0 16 16" fill="none" xmlns="http://www.w3.org/2000/svg">
<path d="M7.33334 1.33337H6.00001C2.66668 1.33337 1.33334 2.66671 1.33334 6.00004V10C1.33334 13.3334 2.66668 14.6667 6.00001 14.6667H10C13.3333 14.6667 14.6667 13.3334 14.6667 10V8.66671" stroke="#FF36A2" stroke-width="1.5" stroke-linecap="round" stroke-linejoin="round"/>
<path d="M10.6933 2.01338L5.44001 7.26671C5.24001 7.46671 5.04001 7.86005 5.00001 8.14671L4.71334 10.1534C4.60668 10.88 5.12001 11.3867 5.84668 11.2867L7.85334 11C8.13334 10.96 8.52668 10.76 8.73334 10.56L13.9867 5.30671C14.8933 4.40005 15.32 3.34671 13.9867 2.01338C12.6533 0.680046 11.6 1.10671 10.6933 2.01338Z" stroke="#FF36A2" stroke-width="1.5" stroke-miterlimit="10" stroke-linecap="round" stroke-linejoin="round"/>
<path d="M9.94 2.76672C10.3867 4.36006 11.6333 5.60672 13.2333 6.06006" stroke="#FF36A2" stroke-width="1.5" stroke-miterlimit="10" stroke-linecap="round" stroke-linejoin="round"/>
</svg>
