<svg width="426" height="246" viewBox="0 0 426 246" fill="none" xmlns="http://www.w3.org/2000/svg">
<path d="M11.4248 178.663C7.51406 179.711 3.52692 180.591 -0.55127 181.307C-18.4598 184.426 -38.0629 184.325 -60.4645 180.987C-80.8859 177.95 -104.061 172.135 -131.291 163.199C-132.034 162.943 -132.453 162.144 -132.2 161.386C-131.963 160.631 -131.146 160.224 -130.388 160.476C-33.7117 192.186 34.0653 194.669 94.3908 113.45C107.221 96.1813 121.338 83.0736 136.337 74.4863C149.285 67.0922 163.17 62.9008 177.615 62.0289C204.156 60.4274 227.917 70.2459 243.467 77.7749C261.56 86.5374 276.139 89.507 285.186 90.4583C294.987 91.4741 300.579 90.4311 300.637 90.4154C301.415 90.2699 302.162 90.7759 302.323 91.5493C302.468 92.3267 301.962 93.0745 301.189 93.2347C300.95 93.2828 295.231 94.3758 285.057 93.3184C275.742 92.3606 260.769 89.3242 242.226 80.3521C228.342 73.6485 196.394 58.1745 160.157 67.8841C139.534 73.41 117.547 87.0878 96.7 115.154C82.1508 134.736 67.2092 149.571 51.0282 160.485C38.5862 168.889 25.5446 174.88 11.4248 178.663Z" fill="#DAE0E9"/>
<path d="M280.61 55.7494L285.408 87.9492L425.246 102.223L280.61 55.7494Z" fill="#8E5DB6"/>
<path d="M282.292 101.861L294.534 123.353L425.246 102.223L282.292 101.861Z" fill="#8E5DB6"/>
<path d="M265.221 75.0059L425.246 102.222L242.687 108.846L265.221 75.0059Z" fill="#B577E7"/>
<path d="M293.814 32.0238L276.242 58.4278L425.246 102.223L293.814 32.0238Z" fill="#B577E7"/>
</svg>
