<svg width="70" height="70" viewBox="0 0 70 70" fill="none" xmlns="http://www.w3.org/2000/svg">
<path d="M42.6562 48.125H27.3438C26.1834 48.125 25.0706 48.5859 24.2502 49.4064C23.4297 50.2269 22.9688 51.3397 22.9688 52.5V67.8125H47.0312V52.5C47.0312 51.3397 46.5703 50.2269 45.7498 49.4064C44.9294 48.5859 43.8166 48.125 42.6562 48.125Z" fill="#7CB2F8"/>
<path d="M35 47.0312C38.3223 47.0312 41.0156 44.338 41.0156 41.0156C41.0156 37.6933 38.3223 35 35 35C31.6777 35 28.9844 37.6933 28.9844 41.0156C28.9844 44.338 31.6777 47.0312 35 47.0312Z" fill="#FFDBAC"/>
<path d="M35 48.125L31.7188 59.0625L35 64.5312L38.2812 59.0625L35 48.125Z" fill="#E6EEF3"/>
<path d="M35 3.28125L38.7177 10.8423L47.0312 12.0542L41.0156 17.9397L42.4353 26.25L35 22.3267L27.5647 26.25L28.9844 17.9397L22.9688 12.0542L31.2823 10.8423L35 3.28125Z" fill="#FFE66D"/>
<path d="M60.7075 18.8525L61.4458 24.8255L66.7723 27.5894L61.3353 30.1532L60.3488 36.0933L56.2494 31.7052L50.3125 32.6119L53.2164 27.3368L50.5345 21.9566L56.4277 23.0843L60.7075 18.8525Z" fill="#FFE66D"/>
<path d="M9.34719 18.8525L8.60781 24.8255L3.28125 27.5894L8.71828 30.1532L9.70484 36.0933L13.8053 31.7052L19.7411 32.6119L16.8372 27.3368L19.5191 21.9566L13.6259 23.0843L9.34719 18.8525Z" fill="#FFE66D"/>
<path d="M24.0625 52.5C24.0625 51.6297 24.4082 50.7951 25.0236 50.1798C25.6389 49.5644 26.4735 49.2187 27.3438 49.2187H33.53L30.6709 58.7486C30.6274 58.894 30.6147 59.0469 30.6335 59.1976C30.6524 59.3482 30.7024 59.4933 30.7803 59.6236L34.0616 65.0923C34.1588 65.254 34.2962 65.3878 34.4605 65.4807C34.6247 65.5736 34.8102 65.6224 34.9989 65.6224C35.1876 65.6224 35.3731 65.5736 35.5373 65.4807C35.7016 65.3878 35.839 65.254 35.9362 65.0923L39.2175 59.6236C39.2955 59.4933 39.3454 59.3482 39.3643 59.1976C39.3831 59.0469 39.3704 58.894 39.3269 58.7486L36.47 49.2187H42.6562C43.5265 49.2187 44.3611 49.5644 44.9764 50.1798C45.5918 50.7951 45.9375 51.6297 45.9375 52.5V67.8125H48.125V52.5C48.1233 51.0501 47.5465 49.6601 46.5213 48.6349C45.4961 47.6097 44.1061 47.033 42.6562 47.0312H38.7713C40.0791 46.2122 41.085 44.9898 41.6369 43.5487C42.1888 42.1076 42.2569 40.5261 41.8308 39.0429C41.4047 37.5597 40.5076 36.2554 39.2749 35.327C38.0423 34.3987 36.541 33.8965 34.9978 33.8965C33.4546 33.8965 31.9534 34.3987 30.7207 35.327C29.488 36.2554 28.5909 37.5597 28.1648 39.0429C27.7387 40.5261 27.8068 42.1076 28.3587 43.5487C28.9107 44.9898 29.9165 46.2122 31.2244 47.0312H27.3438C25.8939 47.033 24.5039 47.6097 23.4787 48.6349C22.4535 49.6601 21.8767 51.0501 21.875 52.5V67.8125H24.0625V52.5ZM37.0945 58.9137L35 62.405L32.9055 58.9137L35 51.9312L37.0945 58.9137ZM30.0781 41.0156C30.0781 40.0422 30.3668 39.0906 30.9076 38.2812C31.4484 37.4718 32.2171 36.8409 33.1165 36.4684C34.0158 36.0959 35.0055 35.9984 35.9602 36.1883C36.915 36.3782 37.792 36.847 38.4803 37.5353C39.1686 38.2237 39.6374 39.1006 39.8273 40.0554C40.0172 41.0101 39.9197 41.9998 39.5472 42.8991C39.1747 43.7985 38.5438 44.5672 37.7344 45.108C36.925 45.6488 35.9735 45.9375 35 45.9375C33.6951 45.936 32.444 45.417 31.5213 44.4943C30.5986 43.5716 30.0796 42.3205 30.0781 41.0156Z" fill="black"/>
<path d="M27.8097 18.3203L26.4862 26.0662C26.4521 26.2674 26.4749 26.474 26.5521 26.6629C26.6292 26.8517 26.7577 27.0152 26.9229 27.1349C27.0881 27.2546 27.2834 27.3257 27.4869 27.3402C27.6904 27.3547 27.8939 27.3119 28.0744 27.2169L35 23.5626L41.9256 27.2169C42.1061 27.3119 42.3096 27.3547 42.5131 27.3402C42.7165 27.3257 42.9119 27.2546 43.0771 27.1349C43.2423 27.0152 43.3707 26.8517 43.4479 26.6629C43.5251 26.474 43.5479 26.2674 43.5137 26.0662L42.1903 18.3203L47.7969 12.8362C47.9412 12.6936 48.043 12.5135 48.0908 12.3163C48.1387 12.1191 48.1307 11.9125 48.0679 11.7195C48.005 11.5266 47.8897 11.3549 47.7348 11.2237C47.5799 11.0926 47.3916 11.0071 47.1909 10.9769L39.445 9.84374L35.9844 2.79889C35.8838 2.62811 35.7404 2.48655 35.5683 2.38819C35.3962 2.28983 35.2015 2.2381 35.0033 2.2381C34.8051 2.2381 34.6103 2.28983 34.4382 2.38819C34.2662 2.48655 34.1228 2.62811 34.0222 2.79889L30.555 9.84374L22.8102 10.9736C22.6095 11.0038 22.4212 11.0893 22.2663 11.2205C22.1114 11.3516 21.9961 11.5233 21.9332 11.7162C21.8703 11.9092 21.8624 12.1158 21.9102 12.313C21.9581 12.5103 22.0599 12.6903 22.2042 12.833L27.8097 18.3203ZM31.4398 11.9219C31.6154 11.8963 31.7822 11.8283 31.9257 11.7239C32.0692 11.6195 32.1851 11.4817 32.2634 11.3225L35 5.75967L37.7344 11.3247C37.8127 11.4839 37.9286 11.6217 38.0721 11.7261C38.2156 11.8305 38.3824 11.8985 38.558 11.9241L44.683 12.8176L40.25 17.1587C40.1235 17.2823 40.0288 17.4348 39.9742 17.603C39.9195 17.7712 39.9064 17.9502 39.9361 18.1245L40.9828 24.2495L35.5141 21.3609C35.3565 21.2783 35.1812 21.2352 35.0033 21.2352C34.8254 21.2352 34.6501 21.2783 34.4925 21.3609L29.0237 24.2495L30.0705 18.1245C30.1001 17.9502 30.0871 17.7712 30.0324 17.603C29.9777 17.4348 29.8831 17.2823 29.7566 17.1587L25.3203 12.8176L31.4398 11.9219Z" fill="black"/>
<path d="M67.2767 26.6186L62.4642 24.1205L61.797 18.7184C61.7725 18.5147 61.6913 18.3219 61.5625 18.1622C61.4336 18.0024 61.2625 17.8821 61.0685 17.815C60.8746 17.7479 60.6657 17.7368 60.4657 17.7828C60.2657 17.8288 60.0827 17.9302 59.9376 18.0753L56.0679 21.9034L50.7403 20.8841C50.5401 20.8458 50.3332 20.8642 50.1429 20.9372C49.9526 21.0102 49.7865 21.135 49.6633 21.2974C49.5401 21.4598 49.4648 21.6534 49.4458 21.8563C49.4268 22.0593 49.4649 22.2635 49.5557 22.4459L51.9817 27.3131L49.3567 32.0862C49.2581 32.2651 49.2117 32.468 49.2225 32.6719C49.2333 32.8758 49.301 33.0726 49.4179 33.2401C49.5348 33.4075 49.6962 33.5389 49.8839 33.6193C50.0716 33.6997 50.2781 33.726 50.48 33.6952L55.8459 32.8748L59.5515 36.8419C59.6909 36.991 59.8693 37.0981 60.0664 37.1512C60.2635 37.2042 60.4716 37.201 60.667 37.1419C60.8624 37.0829 61.0374 36.9703 61.1721 36.8169C61.3069 36.6636 61.396 36.4756 61.4295 36.2742L62.3231 30.8995L67.245 28.5797C67.4293 28.4927 67.5857 28.356 67.6965 28.1848C67.8072 28.0137 67.868 27.815 67.8719 27.6112C67.8757 27.4074 67.8226 27.2066 67.7184 27.0314C67.6142 26.8562 67.4631 26.7136 67.2821 26.6197L67.2767 26.6186ZM60.8695 29.1648C60.7096 29.2402 60.5703 29.3532 60.4637 29.4942C60.357 29.6351 60.2861 29.7999 60.257 29.9742L59.6335 33.7258L57.049 30.9586C56.9466 30.8491 56.8228 30.7618 56.6853 30.7022C56.5477 30.6425 56.3994 30.6118 56.2495 30.6119C56.1942 30.6118 56.1389 30.6162 56.0843 30.625L52.3404 31.1959L54.1746 27.8644C54.2601 27.7093 54.3066 27.5359 54.3102 27.3589C54.3138 27.1819 54.2744 27.0067 54.1954 26.8483L52.5001 23.4467L56.2189 24.1598C56.3932 24.1931 56.5731 24.1833 56.7429 24.1315C56.9127 24.0797 57.0673 23.9873 57.1934 23.8623L59.8917 21.1947L60.3576 24.9605C60.3796 25.1365 60.444 25.3045 60.5454 25.4501C60.6467 25.5957 60.782 25.7144 60.9395 25.7961L64.3039 27.5461L60.8695 29.1648Z" fill="black"/>
<path d="M2.81523 28.5786L7.7371 30.8984L8.6296 36.2731C8.66306 36.4745 8.75221 36.6625 8.88696 36.8158C9.02171 36.9692 9.19669 37.0818 9.3921 37.1408C9.5875 37.1999 9.79554 37.2031 9.99268 37.1501C10.1898 37.097 10.3682 36.9899 10.5076 36.8408L14.2132 32.8737L19.5791 33.6941C19.781 33.7249 19.9875 33.6986 20.1752 33.6182C20.3629 33.5378 20.5243 33.4064 20.6412 33.239C20.7581 33.0715 20.8258 32.8747 20.8366 32.6708C20.8474 32.4669 20.8009 32.264 20.7024 32.0851L18.0774 27.312L20.5044 22.4448C20.5953 22.2624 20.6334 22.0582 20.6144 21.8552C20.5954 21.6523 20.52 21.4587 20.3969 21.2963C20.2737 21.1339 20.1076 21.0091 19.9173 20.9361C19.727 20.8631 19.5201 20.8447 19.3199 20.883L13.9912 21.9023L10.1215 18.0742C9.97637 17.9291 9.79336 17.8277 9.59338 17.7817C9.39339 17.7357 9.18448 17.7468 8.99054 17.8139C8.7966 17.881 8.62544 18.0013 8.49663 18.1611C8.36781 18.3208 8.28654 18.5136 8.2621 18.7173L7.59382 24.1194L2.78132 26.6175C2.60039 26.7114 2.4493 26.854 2.3451 27.0292C2.2409 27.2044 2.18774 27.4052 2.1916 27.609C2.19547 27.8128 2.25622 28.0115 2.36699 28.1826C2.47776 28.3538 2.63415 28.4905 2.81851 28.5775L2.81523 28.5786ZM9.11085 25.7961C9.26834 25.7144 9.40359 25.5957 9.50496 25.4501C9.60633 25.3045 9.67077 25.1365 9.69273 24.9605L10.1587 21.1947L12.8559 23.8623C12.9825 23.9868 13.1373 24.0789 13.3072 24.1307C13.4771 24.1825 13.6569 24.1925 13.8315 24.1598L17.5502 23.4467L15.8549 26.8483C15.7759 27.0067 15.7365 27.1819 15.7401 27.3589C15.7437 27.5359 15.7903 27.7093 15.8757 27.8644L17.7187 31.1959L13.9693 30.625C13.7941 30.5975 13.6149 30.613 13.447 30.6701C13.2791 30.7273 13.1277 30.8244 13.0057 30.9531L10.4201 33.7203L9.79773 29.9687C9.76853 29.7943 9.69745 29.6295 9.59058 29.4885C9.48371 29.3475 9.34424 29.2346 9.18413 29.1594L5.74648 27.5428L9.11085 25.7961Z" fill="black"/>
</svg>
