<svg width="60" height="60" viewBox="0 0 60 60" fill="none" xmlns="http://www.w3.org/2000/svg">
<path d="M45 21.5625C47.4864 21.5625 49.871 22.5502 51.6292 24.3083C53.3872 26.0665 54.375 28.4511 54.375 30.9375V38.4375C54.375 39.4321 53.9799 40.3859 53.2766 41.0891C52.5734 41.7924 51.6196 42.1875 50.625 42.1875H39.375C38.3804 42.1875 37.4266 41.7924 36.7234 41.0891C36.0201 40.3859 35.625 39.4321 35.625 38.4375V30.9375C35.625 28.4511 36.6128 26.0665 38.3708 24.3083C40.129 22.5502 42.5136 21.5625 45 21.5625Z" fill="#656B76"/>
<path d="M52.5 32.8123V30.1132C52.4996 29.7279 52.4232 29.3464 52.2752 28.9906C52.1272 28.635 51.9103 28.3119 51.6372 28.0401C51.3641 27.7683 51.04 27.5531 50.6836 27.4067C50.3272 27.2604 49.9453 27.1858 49.56 27.1873H49.4887C48.6599 27.1874 47.8392 27.0241 47.0736 26.7069C46.3078 26.3897 45.6122 25.9247 45.0262 25.3385L43.9444 24.2576C43.6832 23.9967 43.4763 23.6866 43.3357 23.3454C43.195 23.004 43.1234 22.6382 43.125 22.2691V22.226C43.1263 22.0645 43.1411 21.9032 43.1691 21.7441C41.0424 22.1676 39.1283 23.3152 37.7528 24.9915C36.3772 26.6677 35.6253 28.7689 35.625 30.9373V38.4373C35.625 39.4319 36.0201 40.3857 36.7234 41.0889C37.4266 41.7922 38.3804 42.1873 39.375 42.1873H50.625C51.6196 42.1873 52.5734 41.7922 53.2766 41.0889C53.9799 40.3857 54.375 39.4319 54.375 38.4373V36.5407C53.7943 36.1076 53.3226 35.5451 52.9972 34.8979C52.6717 34.2508 52.5015 33.5367 52.5 32.8123Z" fill="#464A51"/>
<path d="M40.3125 40.3125H49.6875C50.6821 40.3125 51.6359 40.7076 52.3391 41.4109C53.0424 42.1141 53.4375 43.0679 53.4375 44.0625V53.4375H36.5625V44.0625C36.5625 43.0679 36.9576 42.1141 37.6609 41.4109C38.3641 40.7076 39.3179 40.3125 40.3125 40.3125Z" fill="#00B4D8"/>
<path d="M48.75 48.75C46.7609 48.75 44.8532 47.9598 43.4467 46.5533C42.0402 45.1468 41.25 43.2391 41.25 41.25V40.9228C42.0668 41.2166 42.9412 41.3145 43.8028 41.2085C44.6645 41.1024 45.4891 40.7956 46.2103 40.3125H40.3125C39.3179 40.3125 38.3641 40.7076 37.6609 41.4109C36.9576 42.1141 36.5625 43.0679 36.5625 44.0625V53.4375H53.4375V48.75H48.75Z" fill="#0096C7"/>
<path d="M42.1875 37.5H47.8125V40.3125C47.8125 41.0584 47.5162 41.7738 46.9887 42.3012C46.4613 42.8287 45.7459 43.125 45 43.125C44.2541 43.125 43.5387 42.8287 43.0113 42.3012C42.4838 41.7738 42.1875 41.0584 42.1875 40.3125V37.5Z" fill="#FFD000"/>
<path d="M36.5625 47.8125V49.6875H32.8125C32.3153 49.6875 31.8383 49.885 31.4867 50.2367C31.135 50.5883 30.9375 51.0652 30.9375 51.5625C30.9375 52.0598 31.135 52.5367 31.4867 52.8883C31.8383 53.24 32.3153 53.4375 32.8125 53.4375H40.3125V47.8125H36.5625Z" fill="#FFEA00"/>
<path d="M49.6875 47.8125V49.6875H45.9375C45.4403 49.6875 44.9633 49.885 44.6117 50.2367C44.26 50.5883 44.0625 51.0652 44.0625 51.5625C44.0625 52.0598 44.26 52.5367 44.6117 52.8883C44.9633 53.24 45.4403 53.4375 45.9375 53.4375H53.4375V47.8125H49.6875Z" fill="#FFEA00"/>
<path d="M46.875 42.1875C46.4366 42.1861 46.0046 42.0818 45.6138 41.883C45.223 41.6842 44.8843 41.3963 44.625 41.0428C45.9332 40.6783 47.0654 39.8528 47.8125 38.7187V37.5H42.1875V40.3125C42.1853 40.884 42.3578 41.4425 42.6821 41.9132C43.0062 42.3838 43.4666 42.7441 44.0013 42.9457C44.5361 43.1472 45.1196 43.1805 45.6739 43.041C46.2281 42.9014 46.7263 42.5958 47.1019 42.165C47.025 42.1706 46.9528 42.1875 46.875 42.1875Z" fill="#FFB700"/>
<path d="M49.6875 45.9375V49.6875H48.75V46.875C48.75 46.6264 48.8488 46.3879 49.0246 46.2121C49.2004 46.0363 49.4389 45.9375 49.6875 45.9375Z" fill="#0096C7"/>
<path d="M51.5625 49.6875V47.8125H49.6875V49.6875C49.6875 50.1848 49.49 50.6617 49.1383 51.0133C48.7867 51.365 48.3098 51.5625 47.8125 51.5625H44.0625C44.0625 52.0598 44.26 52.5367 44.6117 52.8883C44.9633 53.24 45.4403 53.4375 45.9375 53.4375H53.4375V51.5625C52.9403 51.5625 52.4633 51.365 52.1117 51.0133C51.76 50.6617 51.5625 50.1848 51.5625 49.6875Z" fill="#FFD000"/>
<path d="M40.3125 47.8125H36.5625V49.6875C36.5625 50.1848 36.365 50.6617 36.0133 51.0133C35.6617 51.365 35.1848 51.5625 34.6875 51.5625H30.9375C30.9375 52.0598 31.135 52.5367 31.4867 52.8883C31.8383 53.24 32.3153 53.4375 32.8125 53.4375H40.3125V47.8125Z" fill="#FFD000"/>
<path d="M45 39.375C43.5082 39.375 42.0774 38.7824 41.0226 37.7274C39.9676 36.6726 39.375 35.2418 39.375 33.75V29.0625C40.194 29.0626 40.9924 28.805 41.6568 28.3261C42.3213 27.8472 42.8183 27.1714 43.0772 26.3944L43.125 26.25C44.0167 27.1417 45.0753 27.8491 46.2404 28.3316C47.4055 28.8142 48.6543 29.0626 49.9153 29.0625H50.625V33.75C50.625 35.2418 50.0324 36.6726 48.9774 37.7274C47.9226 38.7824 46.4918 39.375 45 39.375Z" fill="#FFEA00"/>
<path d="M49.9153 29.0625C48.6543 29.0626 47.4055 28.8142 46.2404 28.3316C45.0753 27.8491 44.0167 27.1417 43.125 26.25L43.0772 26.3944C42.8183 27.1714 42.3213 27.8472 41.6568 28.3261C40.9924 28.805 40.194 29.0626 39.375 29.0625V33.75C39.3774 34.9748 39.7797 36.1655 40.5205 37.1408C41.2613 38.1163 42.3003 38.8232 43.4796 39.1543C44.6588 39.4853 45.914 39.4224 47.0543 38.9752C48.1945 38.5279 49.1576 37.7205 49.7972 36.6759C48.945 37.1964 47.9695 37.4805 46.9712 37.4987C45.9728 37.517 44.9875 37.2688 44.1169 36.7798C43.2463 36.2908 42.5217 35.5786 42.0178 34.7165C41.5139 33.8543 41.2489 32.8735 41.25 31.875V30.4491C42.1119 29.9786 42.7644 29.2002 43.0772 28.2694L43.125 28.125C44.0167 29.0167 45.0753 29.7241 46.2404 30.2066C47.4055 30.6893 48.6543 30.9376 49.9153 30.9375H50.625V29.0625H49.9153Z" fill="#FFD000"/>
<path d="M57.1875 53.4375H2.8125V57.1875H57.1875V53.4375Z" fill="#E9F1F2"/>
<path d="M7.5 53.4375H2.8125V57.1875H57.1875V55.3125H9.375C8.87772 55.3125 8.40081 55.115 8.04918 54.7633C7.69754 54.4117 7.5 53.9347 7.5 53.4375Z" fill="#D0D8DA"/>
<path d="M28.125 27.1875H7.5C5.9467 27.1875 4.6875 28.4467 4.6875 30V43.125C4.6875 44.6783 5.9467 45.9375 7.5 45.9375H28.125C29.6783 45.9375 30.9375 44.6783 30.9375 43.125V30C30.9375 28.4467 29.6783 27.1875 28.125 27.1875Z" fill="#D0D8DA"/>
<path d="M29.0625 49.6875C29.5598 49.6875 30.0367 49.885 30.3883 50.2367C30.74 50.5883 30.9375 51.0653 30.9375 51.5625V53.4375H27.1875V51.5625C27.1875 51.0653 27.385 50.5883 27.7367 50.2367C28.0883 49.885 28.5653 49.6875 29.0625 49.6875Z" fill="#E9F1F2"/>
<path d="M30.9375 42.1875V43.125C30.9375 43.8709 30.6412 44.5863 30.1137 45.1137C29.5863 45.6412 28.8709 45.9375 28.125 45.9375H7.5C6.75408 45.9375 6.03871 45.6412 5.51126 45.1137C4.98382 44.5863 4.6875 43.8709 4.6875 43.125V30C4.6875 29.2541 4.98382 28.5387 5.51126 28.0113C6.03871 27.4838 6.75408 27.1875 7.5 27.1875H8.4375V32.8125C8.43687 34.2895 8.78562 35.7458 9.45525 37.0623C10.1249 38.3787 11.0965 39.5182 12.2906 40.3875C12.4848 39.566 12.9504 38.834 13.6122 38.31C14.2741 37.7859 15.0934 37.5006 15.9375 37.5H17.8125C18.3093 37.5015 18.7853 37.6995 19.1367 38.0508C19.488 38.4022 19.686 38.8782 19.6875 39.375V42.1875H30.9375Z" fill="#93999A"/>
<path d="M17.8125 37.5C18.8071 37.5 19.7609 37.8951 20.4641 38.5984C21.1674 39.3016 21.5625 40.2554 21.5625 41.25V51.5625H14.0625V41.25C14.0625 40.2554 14.4576 39.3016 15.1609 38.5984C15.8641 37.8951 16.8179 37.5 17.8125 37.5Z" fill="#E9F1F2"/>
<path d="M21.5625 47.7283V51.5627H14.0625V41.2502C14.0618 40.419 14.3379 39.6113 14.8472 38.9543C15.3564 38.2973 16.0699 37.8286 16.875 37.6221V42.1877C16.8744 43.5165 17.3452 44.8025 18.2034 45.8169C19.0617 46.8314 20.252 47.5087 21.5625 47.7283Z" fill="#D0D8DA"/>
<path d="M10.3125 49.6875H25.3125C25.8097 49.6875 26.2867 49.885 26.6383 50.2367C26.99 50.5883 27.1875 51.0653 27.1875 51.5625V53.4375H8.4375V51.5625C8.4375 51.0653 8.63504 50.5883 8.98668 50.2367C9.33831 49.885 9.81525 49.6875 10.3125 49.6875Z" fill="#E9F1F2"/>
<path d="M27.1875 51.5625V53.4375H8.4375V51.5625C8.43898 51.0657 8.637 50.5897 8.98831 50.2383C9.33963 49.887 9.81572 49.689 10.3125 49.6875H10.4813C10.6708 50.2371 11.0278 50.7134 11.5019 51.0497C11.9761 51.386 12.5437 51.5653 13.125 51.5625H27.1875Z" fill="#D0D8DA"/>
<path d="M30.9375 30V39.375C30.4407 39.3735 29.9647 39.1755 29.6133 38.8242C29.262 38.4728 29.064 37.9968 29.0625 37.5V30.9375C29.061 30.4407 28.863 29.9647 28.5117 29.6133C28.1603 29.262 27.6843 29.064 27.1875 29.0625H16.875C16.3789 29.0588 15.904 28.8601 15.5532 28.5093C15.2024 28.1585 15.0037 27.6836 15 27.1875H28.125C28.8709 27.1875 29.5863 27.4838 30.1137 28.0113C30.6412 28.5387 30.9375 29.2541 30.9375 30Z" fill="#E9F1F2"/>
<path d="M38.4376 12.1875C38.4379 11.8389 38.4097 11.4908 38.3532 11.1469L40.4626 9.9375L37.6501 5.0625L35.5501 6.28125C35.0027 5.85056 34.3965 5.50015 33.7501 5.24063V2.8125H28.1251V5.24063C27.4787 5.50015 26.8726 5.85056 26.3251 6.28125L24.2251 5.0625L21.4126 9.9375L23.522 11.1469C23.4095 11.836 23.4095 12.539 23.522 13.2281L21.4126 14.4375L24.2251 19.3125L26.3251 18.0937C26.8726 18.5244 27.4787 18.8749 28.1251 19.1344V21.5625H33.7501V19.1344C34.3965 18.8749 35.0027 18.5244 35.5501 18.0937L37.6501 19.3125L40.4626 14.4375L38.3532 13.2281C38.4097 12.8842 38.4379 12.5361 38.4376 12.1875ZM30.9376 15C30.3814 15 29.8376 14.8351 29.3751 14.526C28.9126 14.217 28.5521 13.7777 28.3392 13.2638C28.1263 12.7499 28.0706 12.1844 28.1792 11.6388C28.2877 11.0932 28.5555 10.5921 28.9489 10.1988C29.3423 9.80541 29.8433 9.53756 30.389 9.429C30.9345 9.32052 31.5 9.37622 32.0139 9.58913C32.5279 9.80194 32.9671 10.1624 33.2761 10.625C33.5852 11.0874 33.7501 11.6313 33.7501 12.1875C33.7501 12.9334 33.4538 13.6488 32.9263 14.1762C32.3989 14.7037 31.6836 15 30.9376 15Z" fill="#FFEA00"/>
<path d="M34.6876 16.8746C31.9429 16.8743 29.2787 15.9475 27.1263 14.2443C24.974 12.5412 23.4595 10.1613 22.8282 7.49023L21.4126 9.9371L23.522 11.1465C23.4095 11.8356 23.4095 12.5386 23.522 13.2277L21.4126 14.4371L24.2251 19.3121L26.3251 18.0933C26.8726 18.524 27.4787 18.8745 28.1251 19.134V21.5621H33.7501V19.134C34.3965 18.8745 35.0027 18.524 35.5501 18.0933L37.6501 19.3121L39.6657 15.8152C38.0989 16.5132 36.4028 16.8741 34.6876 16.8746Z" fill="#FFD000"/>
<path d="M30.9375 7.5C30.0104 7.5 29.1041 7.77492 28.3333 8.28998C27.5624 8.80506 26.9616 9.53719 26.6068 10.3937C26.2521 11.2502 26.1592 12.1927 26.3401 13.102C26.5209 14.0113 26.9674 14.8465 27.623 15.502C28.2785 16.1576 29.1137 16.6041 30.0231 16.7849C30.9324 16.9658 31.8748 16.8729 32.7313 16.5182C33.5879 16.1634 34.3199 15.5626 34.8351 14.7918C35.3501 14.0209 35.625 13.1146 35.625 12.1875C35.625 10.9443 35.1311 9.75197 34.252 8.87294C33.373 7.99386 32.1807 7.5 30.9375 7.5ZM30.9375 15C30.3813 15 29.8374 14.8351 29.375 14.526C28.9124 14.217 28.5519 13.7777 28.3391 13.2638C28.1262 12.7499 28.0705 12.1844 28.179 11.6388C28.2876 11.0932 28.5554 10.5921 28.9488 10.1988C29.3421 9.80541 29.8433 9.53756 30.3888 9.429C30.9344 9.32052 31.4999 9.37622 32.0139 9.58913C32.5277 9.80194 32.967 10.1624 33.276 10.625C33.5851 11.0874 33.75 11.6313 33.75 12.1875C33.75 12.9334 33.4537 13.6488 32.9262 14.1762C32.3988 14.7037 31.6835 15 30.9375 15Z" fill="#FFB700"/>
<path d="M26.5032 13.7158C26.8226 14.6379 27.4212 15.4374 28.2159 16.0036C29.0105 16.5698 29.9618 16.8744 30.9375 16.8752C31.4278 16.8774 31.9151 16.8015 32.3813 16.6502C30.1881 16.2349 28.1533 15.219 26.5032 13.7158Z" fill="#FFB700"/>
<path d="M26.5032 13.7158C26.8226 14.6379 27.4212 15.4374 28.2159 16.0036C29.0105 16.5698 29.9618 16.8744 30.9375 16.8752C31.4278 16.8774 31.9151 16.8015 32.3813 16.6502C30.1881 16.2349 28.1533 15.219 26.5032 13.7158Z" fill="#FFA200"/>
<path d="M18.7501 15.9375C18.75 15.5935 18.7186 15.2502 18.6564 14.9119L20.5614 13.8113L18.6864 10.5637L16.7814 11.6644C16.256 11.2157 15.652 10.8682 15.0001 10.6397V8.4375H11.2501V10.6397C10.5999 10.8688 9.99751 11.2163 9.47355 11.6644L7.56763 10.5637L5.69263 13.8113L7.59388 14.9119C7.46387 15.5894 7.46387 16.2856 7.59388 16.9631L5.69263 18.0637L7.56763 21.3113L9.47355 20.2106C9.99751 20.6588 10.5999 21.0062 11.2501 21.2353V23.4375H15.0001V21.2353C15.652 21.0067 16.256 20.6593 16.7814 20.2106L18.6873 21.3113L20.5623 18.0637L18.6564 16.9631C18.7186 16.6248 18.75 16.2815 18.7501 15.9375ZM13.1251 17.8125C12.7543 17.8125 12.3918 17.7025 12.0835 17.4965C11.7751 17.2905 11.5347 16.9976 11.3929 16.6551C11.251 16.3124 11.2138 15.9354 11.2862 15.5717C11.3585 15.208 11.5371 14.8739 11.7993 14.6117C12.0615 14.3495 12.3956 14.1709 12.7593 14.0985C13.123 14.0262 13.5 14.0633 13.8427 14.2052C14.1852 14.3471 14.4781 14.5875 14.6842 14.8958C14.8901 15.2042 15.0001 15.5666 15.0001 15.9375C15.0001 16.4348 14.8026 16.9117 14.4509 17.2633C14.0994 17.615 13.6225 17.8125 13.1251 17.8125Z" fill="#FFEA00"/>
<path d="M20.4844 18.0186C19.3438 18.506 18.1154 18.7548 16.875 18.7498C15.4225 18.7524 13.9899 18.4119 12.6938 17.7561C12.3551 17.6802 12.0456 17.5076 11.8032 17.2592L11.7996 17.2584L11.7965 17.2565L11.7945 17.2534L11.7938 17.2498C10.646 16.5135 9.67401 15.534 8.94659 14.3806C8.2192 13.2271 7.75417 11.9279 7.58442 10.5748L7.56567 10.5654L5.69067 13.8092L7.5938 14.9154C7.46881 15.591 7.46881 16.2837 7.5938 16.9592L5.69067 18.0654L7.56567 21.3092L9.46879 20.2123C9.99707 20.6561 10.6003 21.0021 11.25 21.2342V23.4373H15V21.2342C15.6498 21.0021 16.253 20.6561 16.7813 20.2123L18.6844 21.3092L20.5594 18.0654L20.4844 18.0186Z" fill="#FFD000"/>
<path d="M13.125 12.1875C12.3833 12.1875 11.6583 12.4074 11.0416 12.8195C10.4249 13.2315 9.94425 13.8173 9.66046 14.5025C9.37659 15.1877 9.30236 15.9416 9.44709 16.6691C9.59175 17.3965 9.94893 18.0647 10.4734 18.5891C10.9978 19.1136 11.666 19.4707 12.3934 19.6154C13.1209 19.7602 13.8748 19.6859 14.56 19.402C15.2452 19.1182 15.831 18.6376 16.243 18.0209C16.6551 17.4042 16.875 16.6792 16.875 15.9375C16.875 14.9429 16.4799 13.9891 15.7766 13.2859C15.0734 12.5826 14.1196 12.1875 13.125 12.1875ZM13.125 17.8125C12.7541 17.8125 12.3917 17.7025 12.0833 17.4965C11.775 17.2905 11.5346 16.9976 11.3927 16.6551C11.2508 16.3124 11.2137 15.9354 11.286 15.5717C11.3584 15.208 11.537 14.8739 11.7992 14.6117C12.0614 14.3495 12.3955 14.1709 12.7592 14.0985C13.1229 14.0262 13.4999 14.0633 13.8426 14.2052C14.1851 14.3471 14.478 14.5875 14.684 14.8958C14.89 15.2042 15 15.5666 15 15.9375C14.9985 16.4343 14.8005 16.9103 14.4492 17.2617C14.0978 17.613 13.6218 17.811 13.125 17.8125Z" fill="#FFB700"/>
<path d="M12.6939 17.7561C12.3552 17.6802 12.0457 17.5076 11.8032 17.2592L11.7939 17.2498C10.9032 16.6743 10.1171 15.9515 9.46887 15.1123C9.40428 15.3825 9.3728 15.6595 9.37512 15.9373C9.37578 16.6678 9.58971 17.3822 9.99078 17.9927C10.3918 18.6033 10.9624 19.0834 11.6325 19.3741C12.3026 19.6649 13.0431 19.7536 13.7629 19.6294C14.4827 19.5051 15.1506 19.1734 15.6845 18.6748C14.6415 18.5462 13.6292 18.2352 12.6939 17.7561Z" fill="#FFA200"/>
<path d="M44.0625 7.96875V13.5938C44.0625 14.091 44.26 14.5679 44.6117 14.9196C44.9633 15.2712 45.4403 15.4688 45.9375 15.4688V19.2188L51.5625 15.4688H55.3125C55.8097 15.4688 56.2867 15.2712 56.6383 14.9196C56.99 14.5679 57.1875 14.091 57.1875 13.5938V7.96875C57.1875 7.47147 56.99 6.99456 56.6383 6.64293C56.2867 6.29129 55.8097 6.09375 55.3125 6.09375H45.9375C45.4403 6.09375 44.9633 6.29129 44.6117 6.64293C44.26 6.99456 44.0625 7.47147 44.0625 7.96875Z" fill="#ADE8F4"/>
<path d="M57.1875 12.1875V13.5938C57.186 14.0905 56.988 14.5666 56.6367 14.918C56.2853 15.2692 55.8093 15.4672 55.3125 15.4688H51.5625L45.9375 19.2188V15.4688C45.4407 15.4672 44.9647 15.2692 44.6133 14.918C44.262 14.5666 44.064 14.0905 44.0625 13.5938V7.96875C44.064 7.47192 44.262 6.99588 44.6133 6.64456C44.9647 6.29325 45.4407 6.09523 45.9375 6.09375H46.875V8.4375C46.875 9.43209 47.2701 10.3859 47.9734 11.0891C48.6766 11.7924 49.6304 12.1875 50.625 12.1875H57.1875Z" fill="#48CAE4"/>
<path d="M43.125 32.8125C43.6428 32.8125 44.0625 32.3928 44.0625 31.875C44.0625 31.3572 43.6428 30.9375 43.125 30.9375C42.6072 30.9375 42.1875 31.3572 42.1875 31.875C42.1875 32.3928 42.6072 32.8125 43.125 32.8125Z" fill="#323232"/>
<path d="M46.875 32.8125C47.3928 32.8125 47.8125 32.3928 47.8125 31.875C47.8125 31.3572 47.3928 30.9375 46.875 30.9375C46.3572 30.9375 45.9375 31.3572 45.9375 31.875C45.9375 32.3928 46.3572 32.8125 46.875 32.8125Z" fill="#323232"/>
<path d="M57.1875 52.5H54.2025C54.3135 52.1997 54.3719 51.8826 54.375 51.5625V44.0625C54.3696 43.2913 54.1717 42.5338 53.7994 41.8584C54.2766 41.4255 54.6577 40.8974 54.9183 40.3083C55.1789 39.7191 55.3132 39.0818 55.3125 38.4375V30.9375C55.3125 28.2024 54.226 25.5794 52.2921 23.6454C50.3581 21.7115 47.7351 20.625 45 20.625C42.2649 20.625 39.6419 21.7115 37.7079 23.6454C35.774 25.5794 34.6875 28.2024 34.6875 30.9375V33.75C34.6875 33.9986 34.7863 34.2371 34.9621 34.4129C35.1379 34.5887 35.3764 34.6875 35.625 34.6875C35.8736 34.6875 36.1121 34.5887 36.2879 34.4129C36.4637 34.2371 36.5625 33.9986 36.5625 33.75V30.9375C36.5625 28.6998 37.4514 26.5537 39.0338 24.9712C40.6162 23.3889 42.7623 22.5 45 22.5C47.2377 22.5 49.3838 23.3889 50.9662 24.9712C52.5486 26.5537 53.4375 28.6998 53.4375 30.9375V38.4375C53.4368 38.8072 53.3618 39.1731 53.2169 39.5133C53.072 39.8534 52.86 40.1609 52.5938 40.4175C51.7724 39.7485 50.7469 39.3806 49.6875 39.375H48.75V39.1275C49.6175 38.5241 50.3262 37.7201 50.816 36.7838C51.3056 35.8475 51.5617 34.8067 51.5625 33.75V32.8125C51.5625 32.5639 51.4637 32.3254 51.2879 32.1496C51.1121 31.9738 50.8736 31.875 50.625 31.875C50.3764 31.875 50.1379 31.9738 49.9621 32.1496C49.7863 32.3254 49.6875 32.5639 49.6875 32.8125V33.75C49.6875 34.9932 49.1936 36.1855 48.3145 37.0645C47.4355 37.9436 46.2432 38.4375 45 38.4375C43.7568 38.4375 42.5645 37.9436 41.6855 37.0645C40.8064 36.1855 40.3125 34.9932 40.3125 33.75V29.9062C40.9509 29.7809 41.5575 29.5279 42.0957 29.1623C42.6339 28.7968 43.0928 28.3263 43.4447 27.7791C45.2914 29.2236 47.5699 30.0057 49.9144 30H50.625C50.8736 30 51.1121 29.9012 51.2879 29.7254C51.4637 29.5496 51.5625 29.3111 51.5625 29.0625C51.5625 28.8139 51.4637 28.5754 51.2879 28.3996C51.1121 28.2238 50.8736 28.125 50.625 28.125H49.9144C48.7761 28.1282 47.6484 27.9055 46.5968 27.4699C45.5452 27.0342 44.5904 26.3944 43.7878 25.5872C43.6749 25.4743 43.5351 25.3922 43.3816 25.3485C43.228 25.3048 43.0659 25.3011 42.9105 25.3376C42.7552 25.3741 42.6116 25.4497 42.4936 25.5572C42.3757 25.6647 42.2871 25.8006 42.2362 25.9519L42.1875 26.0981C41.991 26.6886 41.6136 27.2021 41.1087 27.5659C40.6039 27.9297 39.9973 28.1254 39.375 28.125C39.1264 28.125 38.8879 28.2238 38.7121 28.3996C38.5363 28.5754 38.4375 28.8139 38.4375 29.0625V33.75C38.4383 34.8067 38.6944 35.8475 39.184 36.7838C39.6738 37.7201 40.3825 38.5241 41.25 39.1275V39.375H40.3125C39.2531 39.3806 38.2276 39.7485 37.4062 40.4175C37.14 40.1609 36.928 39.8534 36.7831 39.5133C36.6382 39.1731 36.5632 38.8072 36.5625 38.4375V37.5C36.5625 37.2514 36.4637 37.0129 36.2879 36.8371C36.1121 36.6613 35.8736 36.5625 35.625 36.5625C35.3764 36.5625 35.1379 36.6613 34.9621 36.8371C34.7863 37.0129 34.6875 37.2514 34.6875 37.5V38.4375C34.6868 39.0818 34.8211 39.7191 35.0817 40.3083C35.3423 40.8974 35.7234 41.4255 36.2006 41.8584C35.8283 42.5338 35.6304 43.2913 35.625 44.0625V48.75H32.8125C32.1184 48.7524 31.45 49.0131 30.9375 49.4812C30.4263 49.011 29.7571 48.75 29.0625 48.75C28.3679 48.75 27.6987 49.011 27.1875 49.4812C26.675 49.0131 26.0066 48.7524 25.3125 48.75H22.5V46.875H28.125C29.1196 46.875 30.0734 46.4799 30.7766 45.7766C31.4799 45.0734 31.875 44.1196 31.875 43.125V30C31.875 29.0054 31.4799 28.0516 30.7766 27.3484C30.0734 26.6451 29.1196 26.25 28.125 26.25H7.5C6.50543 26.25 5.55161 26.6451 4.84835 27.3484C4.14509 28.0516 3.75 29.0054 3.75 30V43.125C3.75 44.1196 4.14509 45.0734 4.84835 45.7766C5.55161 46.4799 6.50543 46.875 7.5 46.875H10.3125C10.5611 46.875 10.7996 46.7762 10.9754 46.6004C11.1512 46.4246 11.25 46.1861 11.25 45.9375C11.25 45.6889 11.1512 45.4504 10.9754 45.2746C10.7996 45.0988 10.5611 45 10.3125 45H7.5C7.00272 45 6.52581 44.8025 6.17418 44.4508C5.82254 44.0992 5.625 43.6222 5.625 43.125V30C5.625 29.5028 5.82254 29.0258 6.17418 28.6742C6.52581 28.3225 7.00272 28.125 7.5 28.125H28.125C28.6222 28.125 29.0992 28.3225 29.4508 28.6742C29.8025 29.0258 30 29.5028 30 30V43.125C30 43.6222 29.8025 44.0992 29.4508 44.4508C29.0992 44.8025 28.6222 45 28.125 45H22.5V41.25C22.5 40.0068 22.0061 38.8145 21.127 37.9355C20.248 37.0564 19.0557 36.5625 17.8125 36.5625C16.5693 36.5625 15.377 37.0564 14.498 37.9355C13.6189 38.8145 13.125 40.0068 13.125 41.25V48.75H10.3125C9.56663 48.75 8.85121 49.0463 8.32376 49.5738C7.79632 50.1012 7.5 50.8166 7.5 51.5625V52.5H2.8125C2.56386 52.5 2.3254 52.5988 2.14958 52.7746C1.97378 52.9504 1.875 53.1889 1.875 53.4375C1.875 53.6861 1.97378 53.9246 2.14958 54.1004C2.3254 54.2762 2.56386 54.375 2.8125 54.375H57.1875C57.4361 54.375 57.6746 54.2762 57.8504 54.1004C58.0262 53.9246 58.125 53.6861 58.125 53.4375C58.125 53.1889 58.0262 52.9504 57.8504 52.7746C57.6746 52.5988 57.4361 52.5 57.1875 52.5ZM48.2006 41.25H48.3028L47.3709 43.5788L46.4709 42.9797L48.2006 41.25ZM46.7241 40.0753L45 41.7994L43.2759 40.0753C44.4036 40.3915 45.5964 40.3915 46.7241 40.0753ZM41.7994 41.25L43.5291 42.9797L42.6291 43.5788L41.6972 41.25H41.7994ZM39.7059 41.3203L41.3166 45.3516C41.3683 45.4812 41.4484 45.5978 41.5509 45.6924C41.6534 45.7872 41.7758 45.8579 41.9092 45.8993C42.0425 45.9408 42.1834 45.9518 42.3216 45.9319C42.4598 45.9119 42.5917 45.8613 42.7078 45.7837L45 44.25L47.2922 45.7781C47.4083 45.8557 47.5402 45.9063 47.6784 45.9262C47.8166 45.9462 47.9575 45.9352 48.0908 45.8937C48.2242 45.8523 48.3466 45.7816 48.4491 45.6868C48.5516 45.5921 48.6317 45.4756 48.6834 45.3459L50.2941 41.3147C50.9198 41.4529 51.4795 41.8006 51.8807 42.3003C52.2818 42.8 52.5004 43.4217 52.5 44.0625V46.875H50.625V45.9375C50.625 45.6889 50.5262 45.4504 50.3504 45.2746C50.1746 45.0988 49.9361 45 49.6875 45C49.4389 45 49.2004 45.0988 49.0246 45.2746C48.8488 45.4504 48.75 45.6889 48.75 45.9375V48.75H46.0378C45.3598 48.7415 44.7003 48.9715 44.1747 49.4C43.6492 49.8284 43.2908 50.4279 43.1625 51.0938C43.0893 51.5667 43.137 52.0505 43.3013 52.5H41.25V45.9375C41.25 45.6889 41.1512 45.4504 40.9754 45.2746C40.7996 45.0988 40.5611 45 40.3125 45C40.0639 45 39.8254 45.0988 39.6496 45.2746C39.4738 45.4504 39.375 45.6889 39.375 45.9375V46.875H37.5V44.0625C37.5009 43.4227 37.72 42.8023 38.1211 42.3038C38.5222 41.8052 39.0812 41.4583 39.7059 41.3203ZM15 41.25C15 40.5041 15.2963 39.7887 15.8238 39.2613C16.3512 38.7338 17.0666 38.4375 17.8125 38.4375C18.5584 38.4375 19.2738 38.7338 19.8012 39.2613C20.3287 39.7887 20.625 40.5041 20.625 41.25V48.75H15V41.25ZM9.375 51.5625C9.375 51.3139 9.47381 51.0754 9.64959 50.8996C9.82538 50.7238 10.0639 50.625 10.3125 50.625H25.3125C25.5611 50.625 25.7996 50.7238 25.9754 50.8996C26.1512 51.0754 26.25 51.3139 26.25 51.5625V52.5H9.375V51.5625ZM28.125 52.5V51.5625C28.125 51.3139 28.2238 51.0754 28.3996 50.8996C28.5754 50.7238 28.8139 50.625 29.0625 50.625C29.3111 50.625 29.5496 50.7238 29.7254 50.8996C29.9012 51.0754 30 51.3139 30 51.5625V52.5H28.125ZM32.8125 52.5C32.5639 52.5 32.3254 52.4012 32.1496 52.2254C31.9738 52.0496 31.875 51.8111 31.875 51.5625C31.875 51.3139 31.9738 51.0754 32.1496 50.8996C32.3254 50.7238 32.5639 50.625 32.8125 50.625H36.5625C36.8111 50.625 37.0496 50.5262 37.2254 50.3504C37.4012 50.1746 37.5 49.9361 37.5 49.6875V48.75H39.375V52.5H32.8125ZM45.9375 52.5C45.8004 52.5001 45.6651 52.4701 45.5408 52.4122C45.4167 52.3542 45.3067 52.2697 45.2186 52.1647C45.1306 52.0597 45.0667 51.9368 45.0313 51.8043C44.996 51.6719 44.9901 51.5333 45.0141 51.3984C45.0696 51.1714 45.2018 50.9705 45.3883 50.8295C45.5748 50.6886 45.8042 50.6164 46.0378 50.625H49.6875C49.9361 50.625 50.1746 50.5262 50.3504 50.3504C50.5262 50.1746 50.625 49.9361 50.625 49.6875V48.75H52.5V51.5625C52.5 51.8111 52.4012 52.0496 52.2254 52.2254C52.0496 52.4012 51.8111 52.5 51.5625 52.5H45.9375Z" fill="#323232"/>
<path d="M57.1875 56.25H2.8125C2.56386 56.25 2.3254 56.3488 2.14958 56.5246C1.97378 56.7004 1.875 56.9389 1.875 57.1875C1.875 57.4361 1.97378 57.6746 2.14958 57.8504C2.3254 58.0262 2.56386 58.125 2.8125 58.125H57.1875C57.4361 58.125 57.6746 58.0262 57.8504 57.8504C58.0262 57.6746 58.125 57.4361 58.125 57.1875C58.125 56.9389 58.0262 56.7004 57.8504 56.5246C57.6746 56.3488 57.4361 56.25 57.1875 56.25Z" fill="#323232"/>
<path d="M22.5 33.75C22.7486 33.75 22.9871 33.6512 23.1629 33.4754C23.3387 33.2996 23.4375 33.0611 23.4375 32.8125C23.4375 32.5639 23.3387 32.3254 23.1629 32.1496C22.9871 31.9738 22.7486 31.875 22.5 31.875H13.125C12.8764 31.875 12.6379 31.9738 12.4621 32.1496C12.2863 32.3254 12.1875 32.5639 12.1875 32.8125C12.1875 33.0611 12.2863 33.2996 12.4621 33.4754C12.6379 33.6512 12.8764 33.75 13.125 33.75H22.5Z" fill="#323232"/>
<path d="M20.6007 14.9062L23.4132 19.7812C23.5375 19.9966 23.7422 20.1537 23.9824 20.218C24.2226 20.2823 24.4785 20.2487 24.6938 20.1244L26.2726 19.2131C26.5661 19.4091 26.8717 19.5863 27.1876 19.7437V21.5625C27.1876 21.8111 27.2864 22.0496 27.4621 22.2254C27.6379 22.4012 27.8764 22.5 28.1251 22.5H33.7501C33.9987 22.5 34.2372 22.4012 34.413 22.2254C34.5887 22.0496 34.6876 21.8111 34.6876 21.5625V19.7419C35.0036 19.5842 35.3095 19.407 35.6035 19.2113L37.1813 20.1225C37.3966 20.2468 37.6525 20.2805 37.8927 20.2162C38.1329 20.1518 38.3376 19.9947 38.4619 19.7794L41.2744 14.9044C41.3987 14.689 41.4324 14.4332 41.3681 14.193C41.3038 13.9528 41.1466 13.7481 40.9313 13.6237L39.3554 12.7134C39.3685 12.5259 39.3751 12.3553 39.3751 12.1838C39.3751 12.0122 39.3685 11.8378 39.3554 11.6541L40.9313 10.7437C41.1466 10.6194 41.3038 10.4147 41.3681 10.1745C41.4324 9.93431 41.3987 9.67847 41.2744 9.46312L38.4619 4.58812C38.3367 4.37455 38.1321 4.21918 37.8928 4.1559C37.6534 4.09263 37.3988 4.12658 37.1844 4.25037C36.97 4.37415 36.8132 4.57771 36.7484 4.81663C36.6836 5.05554 36.7158 5.31041 36.8382 5.52562L39.1819 9.58406L37.8891 10.3341C37.7282 10.4272 37.5987 10.566 37.5168 10.733C37.4351 10.8998 37.4047 11.0873 37.4297 11.2716C37.4741 11.5749 37.4976 11.8809 37.5001 12.1875C37.4972 12.4919 37.4738 12.7957 37.4297 13.0969C37.4047 13.2811 37.4351 13.4686 37.5168 13.6355C37.5987 13.8024 37.7282 13.9413 37.8891 14.0344L39.1819 14.7844L37.3069 18.03L36.0151 17.2856C35.8533 17.1923 35.6674 17.1495 35.4812 17.1625C35.295 17.1756 35.1169 17.2439 34.9697 17.3588C34.4902 17.7334 33.9612 18.0397 33.3976 18.2691C33.2246 18.3393 33.0766 18.4595 32.9723 18.6143C32.8681 18.7691 32.8125 18.9515 32.8126 19.1381V20.625H29.0626V19.1372C29.0626 18.9505 29.007 18.7682 28.9028 18.6133C28.7986 18.4585 28.6505 18.3383 28.4776 18.2681C27.914 18.0385 27.385 17.7322 26.9054 17.3578C26.7582 17.243 26.5801 17.1746 26.3939 17.1616C26.2077 17.1486 26.0218 17.1914 25.8601 17.2847L24.5682 18.0291L22.6932 14.7834L23.986 14.0334C24.1471 13.9404 24.2768 13.8017 24.3587 13.6347C24.4408 13.4678 24.4712 13.2802 24.4463 13.0959C24.3513 12.4934 24.3513 11.8797 24.4463 11.2772C24.4712 11.0929 24.4408 10.9054 24.3587 10.7384C24.2768 10.5714 24.1471 10.4327 23.986 10.3397L22.6932 9.58969L24.5682 6.34406L25.8601 7.08844C26.0217 7.18218 26.2077 7.22548 26.3941 7.21278C26.5805 7.20008 26.7588 7.13198 26.9063 7.01719C27.3859 6.64277 27.915 6.33643 28.4785 6.10687C28.6513 6.03655 28.7991 5.9163 28.9032 5.76148C29.0072 5.60667 29.0627 5.42434 29.0626 5.23781V3.75H32.8126V5.23781C32.8126 5.48646 32.9114 5.72491 33.0871 5.90073C33.2629 6.07654 33.5014 6.17531 33.7501 6.17531C33.9987 6.17531 34.2372 6.07654 34.413 5.90073C34.5887 5.72491 34.6876 5.48646 34.6876 5.23781V2.8125C34.6876 2.56386 34.5887 2.3254 34.413 2.14958C34.2372 1.97378 33.9987 1.875 33.7501 1.875H28.1251C27.8764 1.875 27.6379 1.97378 27.4621 2.14958C27.2864 2.3254 27.1876 2.56386 27.1876 2.8125V4.63312C26.8717 4.79062 26.5661 4.96784 26.2726 5.16375L24.6938 4.2525C24.4785 4.12819 24.2226 4.09449 23.9824 4.15884C23.7422 4.22319 23.5375 4.38031 23.4132 4.59562L20.6007 9.47063C20.4764 9.68597 20.4427 9.94181 20.507 10.182C20.5713 10.4222 20.7285 10.6269 20.9438 10.7513L22.5197 11.6616C22.5066 11.8491 22.5001 12.0197 22.5001 12.1912C22.5001 12.3628 22.5066 12.5372 22.5197 12.7209L20.9438 13.6313C20.73 13.7556 20.574 13.9593 20.5097 14.1981C20.4454 14.4369 20.4782 14.6915 20.6007 14.9062Z" fill="#323232"/>
<path d="M30.9375 8.4375C30.1958 8.4375 29.4708 8.65744 28.8541 9.06949C28.2374 9.4815 27.7568 10.0673 27.473 10.7525C27.1891 11.4377 27.1148 12.1916 27.2596 12.9191C27.4043 13.6465 27.7614 14.3147 28.2859 14.8391C28.8103 15.3636 29.4785 15.7207 30.2059 15.8654C30.9334 16.0102 31.6873 15.9359 32.3725 15.652C33.0578 15.3682 33.6435 14.8876 34.0555 14.2709C34.4676 13.6542 34.6875 12.9292 34.6875 12.1875C34.6875 11.1929 34.2924 10.2391 33.5891 9.53588C32.8859 8.83259 31.9321 8.4375 30.9375 8.4375ZM30.9375 14.0625C30.5666 14.0625 30.2042 13.9525 29.8958 13.7465C29.5875 13.5405 29.3471 13.2476 29.2052 12.9051C29.0633 12.5624 29.0262 12.1854 29.0985 11.8217C29.1709 11.458 29.3495 11.1239 29.6117 10.8617C29.8739 10.5995 30.208 10.4209 30.5717 10.3485C30.9354 10.2762 31.3124 10.3133 31.6551 10.4552C31.9976 10.5971 32.2905 10.8375 32.4965 11.1458C32.7025 11.4542 32.8125 11.8166 32.8125 12.1875C32.8125 12.6848 32.615 13.1617 32.2633 13.5133C31.9117 13.865 31.4348 14.0625 30.9375 14.0625Z" fill="#323232"/>
<path d="M10.3125 15.9375C10.3125 16.4937 10.4774 17.0376 10.7865 17.5C11.0955 17.9626 11.5348 18.3231 12.0487 18.5359C12.5626 18.7488 13.1281 18.8045 13.6737 18.696C14.2193 18.5874 14.7204 18.3196 15.1137 17.9262C15.5071 17.5329 15.7749 17.0318 15.8835 16.4862C15.992 15.9406 15.9363 15.3751 15.7234 14.8612C15.5106 14.3473 15.1501 13.908 14.6875 13.599C14.2251 13.2899 13.6812 13.125 13.125 13.125C12.3791 13.125 11.6637 13.4213 11.1363 13.9488C10.6088 14.4762 10.3125 15.1916 10.3125 15.9375ZM14.0625 15.9375C14.0625 16.1229 14.0076 16.3042 13.9045 16.4584C13.8015 16.6125 13.6551 16.7327 13.4838 16.8037C13.3125 16.8746 13.124 16.8932 12.9421 16.857C12.7602 16.8208 12.5932 16.7316 12.4621 16.6004C12.3309 16.4693 12.2417 16.3023 12.2055 16.1204C12.1693 15.9385 12.1879 15.75 12.2588 15.5787C12.3298 15.4074 12.45 15.261 12.6041 15.158C12.7583 15.0549 12.9396 15 13.125 15C13.3736 15 13.6121 15.0988 13.7879 15.2746C13.9637 15.4504 14.0625 15.6889 14.0625 15.9375Z" fill="#323232"/>
<path d="M4.7869 17.8209C4.75502 17.9399 4.74689 18.0639 4.76298 18.186C4.77907 18.3082 4.81905 18.4259 4.88064 18.5325L6.75564 21.78C6.87991 21.9953 7.0846 22.1525 7.32471 22.2169C7.56508 22.2791 7.82022 22.2455 8.03627 22.1231L9.39938 21.3356C9.68916 21.5349 9.9945 21.7105 10.3125 21.8606V23.4375C10.3125 23.6861 10.4113 23.9246 10.5871 24.1004C10.763 24.2762 11.0014 24.375 11.25 24.375H15C15.2486 24.375 15.4871 24.2762 15.6629 24.1004C15.8388 23.9246 15.9375 23.6861 15.9375 23.4375V21.8616C16.2555 21.7115 16.5609 21.5359 16.8506 21.3366L18.2137 22.1241C18.4294 22.2478 18.685 22.2815 18.9253 22.2178C19.1654 22.1534 19.3702 21.9963 19.4944 21.7809L21.3694 18.5334C21.4311 18.4267 21.4712 18.309 21.4873 18.1868C21.5034 18.0647 21.4954 17.9406 21.4635 17.8215C21.4316 17.7025 21.3766 17.591 21.3016 17.4932C21.2266 17.3954 21.133 17.3135 21.0262 17.2519L19.665 16.4662C19.68 16.2891 19.6875 16.1137 19.6875 15.9384C19.6863 15.5374 19.6483 15.1372 19.5741 14.7431C19.5532 14.6208 19.5082 14.5039 19.4418 14.3992C19.3753 14.2943 19.2887 14.2038 19.1871 14.1327C19.0853 14.0617 18.9705 14.0114 18.8493 13.9851C18.7281 13.9587 18.6028 13.9567 18.4807 13.9791C18.3587 14.0015 18.2423 14.0479 18.1384 14.1156C18.0344 14.1832 17.945 14.2709 17.8751 14.3735C17.8053 14.476 17.7564 14.5914 17.7316 14.7129C17.7067 14.8345 17.7062 14.9598 17.73 15.0816C17.84 15.6475 17.84 16.2293 17.73 16.7953C17.695 16.9857 17.7199 17.1823 17.8012 17.3581C17.8823 17.5339 18.016 17.6801 18.1837 17.7769L19.2769 18.4078L18.3394 20.0316L17.25 19.3987C17.082 19.3019 16.8881 19.2595 16.695 19.2775C16.502 19.2955 16.3192 19.3729 16.1719 19.4991C15.7349 19.8717 15.2332 20.1609 14.6916 20.3522C14.5088 20.4167 14.3506 20.5363 14.2387 20.6945C14.1266 20.8525 14.0664 21.0415 14.0662 21.2353V22.5H12.1875V21.2353C12.1873 21.0415 12.1271 20.8525 12.0151 20.6945C11.9032 20.5363 11.7449 20.4167 11.5622 20.3522C11.0207 20.1609 10.5189 19.8717 10.0819 19.4991C9.93459 19.3729 9.75188 19.2955 9.55875 19.2775C9.36569 19.2595 9.17178 19.3019 9.00377 19.3987L7.91064 20.0306L6.97314 18.4069L8.06252 17.7759C8.23026 17.6792 8.36394 17.5329 8.44518 17.3572C8.52642 17.1814 8.55126 16.9848 8.51627 16.7944C8.40628 16.2284 8.40628 15.6466 8.51627 15.0806C8.55126 14.8902 8.52642 14.6936 8.44518 14.5178C8.36394 14.3421 8.23026 14.1958 8.06252 14.0991L6.96939 13.4681L7.90689 11.8444L9.00002 12.4762C9.16779 12.5739 9.36187 12.6167 9.55519 12.5988C9.74841 12.5808 9.93131 12.5029 10.0781 12.3759C10.5152 12.0033 11.0169 11.7141 11.5584 11.5228C11.7419 11.4589 11.9009 11.3396 12.0136 11.1814C12.1263 11.0232 12.187 10.8339 12.1875 10.6397V9.375H14.0625V10.6397C14.0627 10.8335 14.1229 11.0225 14.2349 11.1805C14.3468 11.3387 14.5051 11.4583 14.6878 11.5228C15.2294 11.7141 15.7312 12.0033 16.1681 12.3759C16.3154 12.5021 16.4982 12.5795 16.6912 12.5975C16.8844 12.6155 17.0782 12.5731 17.2462 12.4762L19.1512 11.3756C19.2579 11.314 19.3515 11.2321 19.4265 11.1344C19.5015 11.0367 19.5565 10.9252 19.5884 10.8063C19.6203 10.6873 19.6284 10.5632 19.6124 10.4411C19.5964 10.319 19.5564 10.2012 19.4948 10.0945C19.4333 9.98784 19.3513 9.89438 19.2536 9.81938C19.1559 9.74437 19.0445 9.68934 18.9255 9.65737C18.8065 9.6255 18.6824 9.61734 18.5603 9.63338C18.4382 9.64941 18.3204 9.68934 18.2137 9.75094L16.8506 10.5384C16.5609 10.3391 16.2555 10.1635 15.9375 10.0134V8.4375C15.9375 8.18886 15.8388 7.9504 15.6629 7.77458C15.4871 7.59877 15.2486 7.5 15 7.5H11.25C11.0014 7.5 10.763 7.59877 10.5871 7.77458C10.4113 7.9504 10.3125 8.18886 10.3125 8.4375V10.0134C9.9945 10.1635 9.68916 10.3391 9.39938 10.5384L8.03627 9.75C7.82025 9.62756 7.56507 9.59391 7.32471 9.65625C7.0846 9.72066 6.87991 9.87778 6.75564 10.0931L4.88064 13.3406C4.81851 13.4474 4.77808 13.5654 4.7617 13.6879C4.74532 13.8103 4.75329 13.9348 4.78518 14.0542C4.81707 14.1735 4.87224 14.2853 4.9475 14.3833C5.02277 14.4813 5.11666 14.5634 5.22377 14.625L6.58502 15.4106C6.57002 15.5869 6.56252 15.7622 6.56252 15.9375C6.56252 16.1128 6.57002 16.2881 6.58502 16.4653L5.22377 17.25C5.11697 17.3118 5.0234 17.394 4.94844 17.492C4.87346 17.5899 4.81857 17.7017 4.7869 17.8209Z" fill="#323232"/>
<path d="M55.3125 5.15625H53.4375C53.1889 5.15625 52.9504 5.25503 52.7746 5.43083C52.5988 5.60665 52.5 5.84511 52.5 6.09375C52.5 6.34239 52.5988 6.58085 52.7746 6.75667C52.9504 6.93247 53.1889 7.03125 53.4375 7.03125H55.3125C55.5611 7.03125 55.7996 7.13003 55.9754 7.30583C56.1512 7.48165 56.25 7.72011 56.25 7.96875V13.5938C56.25 13.8424 56.1512 14.0809 55.9754 14.2567C55.7996 14.4324 55.5611 14.5312 55.3125 14.5312H51.5625C51.3773 14.5315 51.1964 14.5863 51.0422 14.6888L46.875 17.4675V15.4688C46.875 15.2201 46.7762 14.9816 46.6004 14.8058C46.4246 14.6301 46.1861 14.5312 45.9375 14.5312C45.6889 14.5312 45.4504 14.4324 45.2746 14.2567C45.0988 14.0809 45 13.8424 45 13.5938V7.96875C45 7.72011 45.0988 7.48165 45.2746 7.30583C45.4504 7.13003 45.6889 7.03125 45.9375 7.03125H49.6875C49.9361 7.03125 50.1746 6.93247 50.3504 6.75667C50.5262 6.58085 50.625 6.34239 50.625 6.09375C50.625 5.84511 50.5262 5.60665 50.3504 5.43083C50.1746 5.25503 49.9361 5.15625 49.6875 5.15625H45.9375C45.1916 5.15625 44.4762 5.45257 43.9488 5.98001C43.4213 6.50746 43.125 7.22283 43.125 7.96875V13.5938C43.1258 14.1753 43.3063 14.7423 43.6419 15.2171C43.9777 15.692 44.452 16.0513 45 16.2459V19.2188C45 19.3884 45.046 19.555 45.1332 19.7006C45.2205 19.8462 45.3456 19.9655 45.4952 20.0455C45.6449 20.1256 45.8135 20.1636 45.983 20.1553C46.1525 20.1471 46.3166 20.093 46.4578 19.9988L51.8437 16.4062H55.3125C56.0584 16.4062 56.7738 16.1099 57.3012 15.5825C57.8287 15.055 58.125 14.3396 58.125 13.5938V7.96875C58.125 7.22283 57.8287 6.50746 57.3012 5.98001C56.7738 5.45257 56.0584 5.15625 55.3125 5.15625Z" fill="#323232"/>
</svg>
