<svg width="40" height="40" viewBox="0 0 40 40" fill="none" xmlns="http://www.w3.org/2000/svg">
<path d="M20.0001 20C24.6025 20 28.3334 16.2691 28.3334 11.6667C28.3334 7.06433 24.6025 3.33337 20.0001 3.33337C15.3977 3.33337 11.6667 7.06433 11.6667 11.6667C11.6667 16.2691 15.3977 20 20.0001 20Z" stroke="#F70D84" stroke-width="1.5" stroke-linecap="round" stroke-linejoin="round"/>
<path d="M5.68335 36.6667C5.68335 30.2167 12.1 25 20 25C21.6 25 23.15 25.2167 24.6 25.6167" stroke="#F70D84" stroke-width="1.5" stroke-linecap="round" stroke-linejoin="round"/>
<path d="M36.6666 30C36.6666 31.25 36.3166 32.4334 35.6999 33.4334C35.3499 34.0334 34.8999 34.5667 34.3833 35C33.2166 36.05 31.6833 36.6667 29.9999 36.6667C27.5666 36.6667 25.4499 35.3667 24.2999 33.4334C23.6832 32.4334 23.3333 31.25 23.3333 30C23.3333 27.9 24.2999 26.0167 25.8333 24.8C26.9833 23.8834 28.4333 23.3334 29.9999 23.3334C33.6833 23.3334 36.6666 26.3167 36.6666 30Z" stroke="#F70D84" stroke-width="1.5" stroke-miterlimit="10" stroke-linecap="round" stroke-linejoin="round"/>
<path d="M27.3999 30L29.0499 31.65L32.5999 28.3667" stroke="#F70D84" stroke-width="1.5" stroke-linecap="round" stroke-linejoin="round"/>
</svg>
